<svg width="36" height="37" viewBox="0 0 36 37" fill="none" xmlns="http://www.w3.org/2000/svg">
<g clip-path="url(#clip0_362_4689)">
<path d="M25.5 5.29988C27.7624 6.60616 29.6444 8.48067 30.9597 10.7378C32.275 12.995 32.978 15.5565 32.9991 18.1689C33.0202 20.7812 32.3587 23.3538 31.08 25.6319C29.8014 27.91 27.9499 29.8147 25.7089 31.1574C23.4679 32.5 20.9151 33.2341 18.3031 33.287C15.6912 33.3398 13.1108 32.7096 10.8173 31.4587C8.52384 30.2079 6.59681 28.3797 5.227 26.1552C3.85719 23.9306 3.09211 21.3869 3.0075 18.7759L3 18.2899L3.0075 17.8039C3.0915 15.2134 3.84532 12.6888 5.19546 10.4764C6.5456 8.26391 8.44598 6.43906 10.7113 5.1797C12.9767 3.92035 15.5297 3.26947 18.1215 3.29053C20.7133 3.3116 23.2554 4.00387 25.5 5.29988ZM18 9.28988C17.6326 9.28993 17.278 9.42481 17.0034 9.66895C16.7289 9.91309 16.5535 10.2495 16.5105 10.6144L16.5 10.7899V18.2899L16.5135 18.4864C16.5477 18.7466 16.6496 18.9933 16.809 19.2019L16.9395 19.3519L21.4395 23.8519L21.5805 23.9749C21.8436 24.179 22.167 24.2898 22.5 24.2898C22.833 24.2898 23.1564 24.179 23.4195 23.9749L23.5605 23.8504L23.685 23.7094C23.8891 23.4463 23.9999 23.1228 23.9999 22.7899C23.9999 22.4569 23.8891 22.1334 23.685 21.8704L23.5605 21.7294L19.5 17.6674V10.7899L19.4895 10.6144C19.4465 10.2495 19.2711 9.91309 18.9966 9.66895C18.722 9.42481 18.3674 9.28993 18 9.28988Z" fill="#2E2F32"/>
</g>
<defs>
<clipPath id="clip0_362_4689">
<rect width="36" height="36" fill="white" transform="translate(0 0.290039)"/>
</clipPath>
</defs>
</svg>
