<svg width="32" height="32" viewBox="0 0 32 32" fill="none" xmlns="http://www.w3.org/2000/svg">
<path d="M8.03735 5.32324C4.35176 5.32324 1.33105 8.33469 1.33105 12.0104C1.33105 13.4347 1.78581 14.7584 2.55575 15.8464L7.21918 23.908C7.87225 24.7613 8.30656 24.5994 8.84977 23.8633L13.9932 15.11C14.097 14.9216 14.1784 14.7216 14.2496 14.5173C14.576 13.7218 14.7438 12.8702 14.7437 12.0104C14.7437 8.33469 11.7239 5.32324 8.03735 5.32324ZM8.03735 8.45668C10.0224 8.45668 11.6013 10.0314 11.6013 12.0107C11.6013 13.99 10.0224 15.5641 8.03735 15.5641C6.05261 15.5641 4.47343 13.9897 4.47343 12.0107C4.47343 10.0314 6.05261 8.45668 8.03735 8.45668Z" fill="#2E2F32"/>
<path fill-rule="evenodd" clip-rule="evenodd" d="M29.4995 7.05127C28.7819 7.06724 28.0624 7.09758 27.3416 7.15091L27.4528 8.91754C28.1451 8.86739 28.8387 8.83513 29.5327 8.82077L29.4995 7.05127ZM25.6753 7.31313C24.5672 7.45077 23.4494 7.64685 22.3445 7.96205L22.7606 9.67407C23.7646 9.38794 24.8051 9.20303 25.8618 9.07178L25.6753 7.31313ZM20.69 8.55476C20.3589 8.7009 20.0383 8.86981 19.7306 9.06028L19.7294 9.06188L19.7274 9.06252C19.2883 9.33908 18.8256 9.69004 18.4478 10.2C18.1741 10.5695 17.9503 11.0367 17.8979 11.5892L19.525 11.7696C19.5371 11.64 19.6035 11.4688 19.723 11.3079H19.7236V11.3072C19.9162 11.0466 20.2049 10.81 20.5482 10.5935L20.5494 10.5928C20.7941 10.4418 21.0489 10.3078 21.312 10.1917L20.69 8.55476ZM19.8523 12.5578L18.7975 13.9102C19.0475 14.1389 19.3097 14.3145 19.563 14.4614L19.5662 14.463L19.5694 14.4649C20.4099 14.943 21.2766 15.2128 22.0801 15.469L22.5418 13.7707C21.7387 13.5145 20.9815 13.2674 20.3326 12.8988C20.1467 12.7909 19.9839 12.6782 19.8523 12.5578ZM24.1108 14.2484L23.6599 15.9496L23.8732 16.016L24.1351 16.0997C25.0018 16.3816 25.8321 16.6828 26.5743 17.0995L27.3273 15.5284C26.4299 15.0241 25.4984 14.6945 24.6007 14.4026L24.5981 14.402L24.3292 14.3161L24.1108 14.2484ZM28.8585 16.7074L27.7015 17.9592C27.9749 18.2553 28.1796 18.6113 28.2792 18.9792L28.2799 18.9811L28.2805 18.984C28.3993 19.4135 28.3996 19.9187 28.3067 20.4291L29.9111 20.7714C30.042 20.051 30.0631 19.2599 29.8479 18.4791C29.6604 17.7887 29.3028 17.189 28.8585 16.7074ZM27.7466 21.4957C27.5698 21.6824 27.3744 21.8506 27.1634 21.9977H27.1628C26.588 22.402 25.9212 22.7066 25.2129 22.9685L25.7411 24.6432C26.5158 24.3567 27.3113 24.0054 28.0547 23.4823L28.0567 23.4807L28.0576 23.4801C28.3629 23.2663 28.6453 23.0216 28.9004 22.7498L27.7466 21.4957ZM23.71 23.4402C22.684 23.7161 21.6352 23.9262 20.5737 24.1044L20.8241 25.8541C21.9166 25.6705 23.0135 25.4511 24.1038 25.158L23.71 23.4402ZM18.9767 24.3459C17.9081 24.4918 16.8338 24.6109 15.7564 24.7125L15.8975 26.4759C16.9916 26.3731 18.0876 26.252 19.182 26.1023L18.9767 24.3459ZM14.1369 24.8514C13.0572 24.937 11.975 25.0066 10.8917 25.0653L10.9735 26.8333C12.0672 26.7742 13.162 26.7036 14.2564 26.6167L14.1369 24.8514ZM9.26401 25.1452C8.61478 25.1755 7.96395 25.2004 7.31152 25.2234L7.36517 26.9929C8.02168 26.9704 8.67805 26.9442 9.33427 26.9144L9.26401 25.1452Z" fill="#2E2F32"/>
</svg>
