<svg width="32" height="33" viewBox="0 0 32 33" fill="none" xmlns="http://www.w3.org/2000/svg">
<path d="M26.9853 8.27627C26.976 8.26692 25.0799 10.1412 21.3063 13.9085L18.6586 11.2608L24.3002 5.6192C21.3313 3.83223 17.5172 4.29067 15.0441 6.76374C14.0988 7.70855 13.4185 8.88531 13.0714 10.176C12.7244 11.4667 12.7228 12.826 13.0669 14.1175L13.123 14.3264L4.28173 23.1646C4.08838 23.358 4.08838 23.6761 4.28173 23.8694L8.69148 28.2792C8.88483 28.4725 9.20293 28.4725 9.39629 28.2792L18.2314 19.4441L18.4403 19.5002C21.0506 20.1957 23.8542 19.4722 25.8003 17.5261C28.2765 15.0531 28.7349 11.239 26.9853 8.27627Z" fill="#2E2F32"/>
</svg>
