<svg width="188" height="55" viewBox="0 0 188 55" fill="none" xmlns="http://www.w3.org/2000/svg">
<rect x="0.705078" y="0.914551" width="187" height="54" rx="7.31861" fill="#010101"/>
<path d="M36.0901 16.2251C37.5353 14.8074 38.344 12.861 38.2162 10.876C36.217 10.876 33.8992 11.9151 32.4318 13.4464C31.2831 14.7127 30.05 16.6977 30.4965 18.6819C32.5596 18.9091 34.7931 17.7565 36.0901 16.2251Z" fill="white"/>
<path d="M45.1223 22.5156C44.7197 22.7291 40.9194 24.7439 40.9194 29.0406C40.9288 29.3072 40.9594 29.5601 40.9944 29.8093H40.9927C41.6224 34.2829 46.0477 35.8824 46.1278 35.8824C46.1128 35.8994 46.0796 35.9867 46.0242 36.1327C45.7678 36.8078 45.0354 38.736 43.4273 40.74C41.8755 42.8394 40.1525 44.9562 37.5363 44.9562C36.3367 44.9562 35.5079 44.6309 34.6494 44.2939C33.7271 43.932 32.7705 43.5566 31.2832 43.5566C29.6385 43.5566 28.6229 43.9547 27.6751 44.3262C26.8457 44.6513 26.0681 44.9562 24.9662 44.9562C22.35 44.9562 20.5 42.7258 18.863 40.6461C16.7812 37.981 15.0164 33.8315 14.8826 29.8093C14.8814 29.7682 14.8778 29.7268 14.8742 29.6854C14.8703 29.6405 14.8664 29.5955 14.8655 29.551C14.8221 27.3774 15.2908 25.241 16.4812 23.4264C18.1608 20.893 21.1604 19.1731 24.4353 19.1163C25.8678 19.0735 27.2104 19.5786 28.3837 20.0199C29.2659 20.3518 30.0525 20.6477 30.7097 20.6477C31.3075 20.6477 32.1173 20.3935 33.077 20.0922C34.4728 19.6541 36.1858 19.1163 38.0255 19.1163C39.3651 19.1171 42.939 19.4761 45.1512 22.5001C45.1456 22.5033 45.1359 22.5084 45.1223 22.5156Z" fill="white"/>
<path d="M72.7622 13.5191C72.7622 14.1083 72.6689 14.6444 72.4823 15.1274C72.2956 15.6104 72.0322 16.0239 71.6918 16.3679C71.3515 16.7119 70.9417 16.979 70.4623 17.1693C69.9866 17.3559 69.4597 17.4492 68.8815 17.4492H65.9449V9.58354H68.8815C69.4597 9.58354 69.9866 9.67868 70.4623 9.86897C70.9417 10.0556 71.3515 10.3227 71.6918 10.6704C72.0322 11.0143 72.2956 11.4278 72.4823 11.9109C72.6689 12.3939 72.7622 12.93 72.7622 13.5191ZM71.6699 13.5191C71.6699 13.0361 71.604 12.6043 71.4723 12.2237C71.3406 11.8432 71.1539 11.5211 70.9124 11.2577C70.6709 10.9942 70.3782 10.7929 70.0342 10.6539C69.6902 10.5148 69.306 10.4453 68.8815 10.4453H67.0098V16.5875H68.8815C69.306 16.5875 69.6902 16.5179 70.0342 16.3789C70.3782 16.2398 70.6709 16.0404 70.9124 15.7806C71.1539 15.5171 71.3406 15.1951 71.4723 14.8145C71.604 14.434 71.6699 14.0022 71.6699 13.5191ZM76.3345 11.8011C76.7407 11.8011 77.1066 11.8688 77.4323 12.0042C77.758 12.1396 78.0361 12.3317 78.2666 12.5805C78.4971 12.8293 78.6728 13.1312 78.7935 13.4862C78.918 13.8375 78.9802 14.2309 78.9802 14.6663C78.9802 15.1054 78.918 15.5006 78.7935 15.8519C78.6728 16.2032 78.4971 16.5033 78.2666 16.7521C78.0361 17.001 77.758 17.1931 77.4323 17.3285C77.1066 17.4602 76.7407 17.5261 76.3345 17.5261C75.9246 17.5261 75.555 17.4602 75.2257 17.3285C74.9 17.1931 74.6219 17.001 74.3914 16.7521C74.1609 16.5033 73.9834 16.2032 73.859 15.8519C73.7382 15.5006 73.6778 15.1054 73.6778 14.6663C73.6778 14.2309 73.7382 13.8375 73.859 13.4862C73.9834 13.1312 74.1609 12.8293 74.3914 12.5805C74.6219 12.3317 74.9 12.1396 75.2257 12.0042C75.555 11.8688 75.9246 11.8011 76.3345 11.8011ZM76.3345 16.7631C76.8834 16.7631 77.2932 16.5801 77.564 16.2142C77.8348 15.8446 77.9702 15.3305 77.9702 14.6718C77.9702 14.0095 77.8348 13.4935 77.564 13.1239C77.2932 12.7543 76.8834 12.5695 76.3345 12.5695C76.0564 12.5695 75.813 12.6171 75.6044 12.7122C75.3995 12.8074 75.2275 12.9446 75.0885 13.1239C74.9531 13.3032 74.8506 13.5246 74.7811 13.7881C74.7152 14.0479 74.6823 14.3425 74.6823 14.6718C74.6823 15.3305 74.8177 15.8446 75.0885 16.2142C75.3629 16.5801 75.7783 16.7631 76.3345 16.7631ZM87.8017 11.8889L86.0013 17.4492H85.2274C85.1322 17.4492 85.0664 17.387 85.0298 17.2626L83.8002 13.4917C83.771 13.4075 83.7472 13.3234 83.7289 13.2392C83.7106 13.1514 83.6923 13.0654 83.674 12.9812C83.6557 13.0654 83.6374 13.1514 83.6191 13.2392C83.6008 13.3234 83.577 13.4093 83.5477 13.4972L82.2963 17.2626C82.2633 17.387 82.1901 17.4492 82.0767 17.4492H81.3412L79.5408 11.8889H80.3093C80.3861 11.8889 80.4501 11.909 80.5014 11.9493C80.5563 11.9895 80.5929 12.0371 80.6112 12.092L81.676 15.6708C81.7382 15.9343 81.7876 16.1831 81.8242 16.4173C81.8571 16.2965 81.8901 16.174 81.923 16.0495C81.9596 15.9251 81.998 15.7989 82.0383 15.6708L83.2129 12.07C83.2312 12.0151 83.2623 11.9694 83.3062 11.9328C83.3538 11.8962 83.4105 11.8779 83.4764 11.8779H83.9045C83.9777 11.8779 84.0381 11.8962 84.0857 11.9328C84.1332 11.9694 84.1662 12.0151 84.1845 12.07L85.3317 15.6708C85.3719 15.7989 85.4085 15.9251 85.4414 16.0495C85.4744 16.174 85.5055 16.2965 85.5347 16.4173C85.553 16.2965 85.575 16.1758 85.6006 16.055C85.6299 15.9306 85.661 15.8025 85.6939 15.6708L86.7807 12.092C86.799 12.0334 86.8338 11.9859 86.885 11.9493C86.9363 11.909 86.9966 11.8889 87.0662 11.8889H87.8017ZM89.6751 12.6958C89.7959 12.5604 89.924 12.4378 90.0594 12.328C90.1948 12.2182 90.3375 12.1249 90.4875 12.0481C90.6412 11.9676 90.8022 11.9072 90.9705 11.8669C91.1425 11.823 91.3273 11.8011 91.5249 11.8011C91.8286 11.8011 92.0958 11.8523 92.3263 11.9548C92.5605 12.0536 92.7544 12.1963 92.9081 12.3829C93.0655 12.5659 93.1844 12.7873 93.2649 13.0471C93.3454 13.3069 93.3857 13.5941 93.3857 13.9088V17.4492H92.4032V13.9088C92.4032 13.488 92.3062 13.1623 92.1122 12.9318C91.922 12.6976 91.631 12.5805 91.2395 12.5805C90.9504 12.5805 90.6796 12.65 90.4271 12.7891C90.1783 12.9281 89.9478 13.1166 89.7355 13.3545V17.4492H88.753V11.8889H89.3403C89.4794 11.8889 89.5654 11.9566 89.5983 12.092L89.6751 12.6958ZM95.8844 9.36398V17.4492H94.9074V9.36398H95.8844ZM99.8126 11.8011C100.219 11.8011 100.585 11.8688 100.91 12.0042C101.236 12.1396 101.514 12.3317 101.745 12.5805C101.975 12.8293 102.151 13.1312 102.272 13.4862C102.396 13.8375 102.458 14.2309 102.458 14.6663C102.458 15.1054 102.396 15.5006 102.272 15.8519C102.151 16.2032 101.975 16.5033 101.745 16.7521C101.514 17.001 101.236 17.1931 100.91 17.3285C100.585 17.4602 100.219 17.5261 99.8126 17.5261C99.4028 17.5261 99.0332 17.4602 98.7039 17.3285C98.3782 17.1931 98.1001 17.001 97.8696 16.7521C97.639 16.5033 97.4615 16.2032 97.3371 15.8519C97.2164 15.5006 97.156 15.1054 97.156 14.6663C97.156 14.2309 97.2164 13.8375 97.3371 13.4862C97.4615 13.1312 97.639 12.8293 97.8696 12.5805C98.1001 12.3317 98.3782 12.1396 98.7039 12.0042C99.0332 11.8688 99.4028 11.8011 99.8126 11.8011ZM99.8126 16.7631C100.362 16.7631 100.771 16.5801 101.042 16.2142C101.313 15.8446 101.448 15.3305 101.448 14.6718C101.448 14.0095 101.313 13.4935 101.042 13.1239C100.771 12.7543 100.362 12.5695 99.8126 12.5695C99.5345 12.5695 99.2912 12.6171 99.0826 12.7122C98.8777 12.8074 98.7057 12.9446 98.5667 13.1239C98.4313 13.3032 98.3288 13.5246 98.2593 13.7881C98.1934 14.0479 98.1605 14.3425 98.1605 14.6718C98.1605 15.3305 98.2959 15.8446 98.5667 16.2142C98.8411 16.5801 99.2564 16.7631 99.8126 16.7631ZM106.711 14.9463C106.261 14.9609 105.877 14.9975 105.558 15.056C105.244 15.1109 104.986 15.1841 104.784 15.2756C104.587 15.3671 104.442 15.475 104.351 15.5994C104.263 15.7239 104.219 15.8629 104.219 16.0166C104.219 16.163 104.243 16.2892 104.29 16.3953C104.338 16.5015 104.402 16.5893 104.482 16.6588C104.567 16.7247 104.664 16.7741 104.773 16.807C104.887 16.8363 105.008 16.8509 105.136 16.8509C105.308 16.8509 105.465 16.8345 105.608 16.8015C105.75 16.7649 105.884 16.7137 106.008 16.6478C106.136 16.582 106.257 16.5033 106.371 16.4118C106.488 16.3203 106.601 16.216 106.711 16.0989V14.9463ZM103.555 12.6738C103.862 12.3774 104.193 12.156 104.548 12.0097C104.903 11.8633 105.297 11.7901 105.728 11.7901C106.039 11.7901 106.316 11.8413 106.557 11.9438C106.799 12.0463 107.002 12.189 107.167 12.3719C107.331 12.5549 107.456 12.7763 107.54 13.0361C107.624 13.2959 107.666 13.5813 107.666 13.8924V17.4492H107.232C107.137 17.4492 107.064 17.4346 107.013 17.4053C106.962 17.3724 106.921 17.3102 106.892 17.2187L106.782 16.6917C106.636 16.8271 106.493 16.9479 106.354 17.054C106.215 17.1565 106.069 17.2443 105.915 17.3175C105.761 17.387 105.597 17.4401 105.421 17.4767C105.249 17.5169 105.057 17.537 104.845 17.537C104.629 17.537 104.426 17.5078 104.235 17.4492C104.045 17.387 103.879 17.2955 103.736 17.1748C103.597 17.054 103.485 16.9022 103.401 16.7192C103.321 16.5326 103.28 16.313 103.28 16.0605C103.28 15.841 103.341 15.6305 103.462 15.4293C103.582 15.2244 103.778 15.0432 104.049 14.8859C104.32 14.7285 104.673 14.6004 105.108 14.5016C105.544 14.3992 106.078 14.3406 106.711 14.326V13.8924C106.711 13.4606 106.618 13.1349 106.431 12.9153C106.244 12.6921 105.972 12.5805 105.613 12.5805C105.372 12.5805 105.169 12.6116 105.004 12.6738C104.843 12.7324 104.702 12.8001 104.581 12.8769C104.464 12.9501 104.362 13.0178 104.274 13.08C104.19 13.1386 104.106 13.1678 104.021 13.1678C103.956 13.1678 103.899 13.1514 103.851 13.1184C103.804 13.0818 103.763 13.0379 103.73 12.9867L103.555 12.6738ZM112.777 13.2117C112.594 12.9666 112.396 12.7964 112.184 12.7013C111.972 12.6025 111.734 12.5531 111.471 12.5531C110.955 12.5531 110.558 12.7379 110.28 13.1075C110.001 13.477 109.862 14.004 109.862 14.6883C109.862 15.0505 109.894 15.3616 109.956 15.6214C110.018 15.8775 110.109 16.0898 110.23 16.2581C110.351 16.4228 110.499 16.5435 110.675 16.6204C110.85 16.6972 111.05 16.7357 111.273 16.7357C111.595 16.7357 111.875 16.6625 112.113 16.5161C112.354 16.3697 112.576 16.163 112.777 15.8958V13.2117ZM113.754 9.36398V17.4492H113.172C113.033 17.4492 112.945 17.3815 112.909 17.2461L112.821 16.571C112.583 16.8564 112.312 17.0869 112.009 17.2626C111.705 17.4382 111.354 17.5261 110.955 17.5261C110.636 17.5261 110.347 17.4657 110.087 17.3449C109.828 17.2205 109.606 17.0394 109.423 16.8015C109.24 16.5637 109.099 16.2673 109.001 15.9123C108.902 15.5574 108.852 15.1493 108.852 14.6883C108.852 14.2784 108.907 13.8979 109.017 13.5466C109.127 13.1916 109.284 12.8842 109.489 12.6244C109.694 12.3646 109.945 12.1615 110.241 12.0151C110.541 11.8651 110.878 11.7901 111.251 11.7901C111.591 11.7901 111.882 11.8487 112.124 11.9657C112.369 12.0792 112.587 12.2384 112.777 12.4433V9.36398H113.754ZM120.45 11.8011C120.856 11.8011 121.222 11.8688 121.548 12.0042C121.873 12.1396 122.151 12.3317 122.382 12.5805C122.612 12.8293 122.788 13.1312 122.909 13.4862C123.033 13.8375 123.096 14.2309 123.096 14.6663C123.096 15.1054 123.033 15.5006 122.909 15.8519C122.788 16.2032 122.612 16.5033 122.382 16.7521C122.151 17.001 121.873 17.1931 121.548 17.3285C121.222 17.4602 120.856 17.5261 120.45 17.5261C120.04 17.5261 119.67 17.4602 119.341 17.3285C119.015 17.1931 118.737 17.001 118.507 16.7521C118.276 16.5033 118.099 16.2032 117.974 15.8519C117.854 15.5006 117.793 15.1054 117.793 14.6663C117.793 14.2309 117.854 13.8375 117.974 13.4862C118.099 13.1312 118.276 12.8293 118.507 12.5805C118.737 12.3317 119.015 12.1396 119.341 12.0042C119.67 11.8688 120.04 11.8011 120.45 11.8011ZM120.45 16.7631C120.999 16.7631 121.409 16.5801 121.679 16.2142C121.95 15.8446 122.086 15.3305 122.086 14.6718C122.086 14.0095 121.95 13.4935 121.679 13.1239C121.409 12.7543 120.999 12.5695 120.45 12.5695C120.172 12.5695 119.928 12.6171 119.72 12.7122C119.515 12.8074 119.343 12.9446 119.204 13.1239C119.068 13.3032 118.966 13.5246 118.896 13.7881C118.831 14.0479 118.798 14.3425 118.798 14.6718C118.798 15.3305 118.933 15.8446 119.204 16.2142C119.478 16.5801 119.894 16.7631 120.45 16.7631ZM125.257 12.6958C125.378 12.5604 125.506 12.4378 125.641 12.328C125.777 12.2182 125.919 12.1249 126.069 12.0481C126.223 11.9676 126.384 11.9072 126.552 11.8669C126.724 11.823 126.909 11.8011 127.107 11.8011C127.41 11.8011 127.678 11.8523 127.908 11.9548C128.142 12.0536 128.336 12.1963 128.49 12.3829C128.647 12.5659 128.766 12.7873 128.847 13.0471C128.927 13.3069 128.967 13.5941 128.967 13.9088V17.4492H127.985V13.9088C127.985 13.488 127.888 13.1623 127.694 12.9318C127.504 12.6976 127.213 12.5805 126.821 12.5805C126.532 12.5805 126.261 12.65 126.009 12.7891C125.76 12.9281 125.53 13.1166 125.317 13.3545V17.4492H124.335V11.8889H124.922C125.061 11.8889 125.147 11.9566 125.18 12.092L125.257 12.6958ZM134.972 17.537C134.533 17.537 134.194 17.4145 133.957 17.1693C133.722 16.9241 133.605 16.571 133.605 16.1099V12.7068H132.936C132.877 12.7068 132.828 12.6903 132.787 12.6574C132.747 12.6208 132.727 12.5659 132.727 12.4927V12.103L133.638 11.9877L133.863 10.2697C133.874 10.2148 133.898 10.1709 133.935 10.1379C133.975 10.1013 134.026 10.083 134.088 10.083H134.582V11.9987H136.191V12.7068H134.582V16.044C134.582 16.2782 134.639 16.4521 134.753 16.5655C134.866 16.6789 135.012 16.7357 135.192 16.7357C135.294 16.7357 135.382 16.7228 135.455 16.6972C135.532 16.668 135.598 16.6369 135.653 16.6039C135.708 16.571 135.753 16.5417 135.79 16.5161C135.83 16.4868 135.865 16.4722 135.894 16.4722C135.945 16.4722 135.991 16.5033 136.031 16.5655L136.317 17.0321C136.149 17.1894 135.945 17.3138 135.708 17.4053C135.47 17.4931 135.225 17.537 134.972 17.537ZM138.182 12.6299C138.42 12.3774 138.683 12.1762 138.972 12.0261C139.262 11.8761 139.595 11.8011 139.971 11.8011C140.275 11.8011 140.542 11.8523 140.773 11.9548C141.007 12.0536 141.201 12.1963 141.355 12.3829C141.512 12.5659 141.631 12.7873 141.711 13.0471C141.792 13.3069 141.832 13.5941 141.832 13.9088V17.4492H140.85V13.9088C140.85 13.488 140.753 13.1623 140.559 12.9318C140.368 12.6976 140.078 12.5805 139.686 12.5805C139.397 12.5805 139.126 12.65 138.874 12.7891C138.625 12.9281 138.394 13.1166 138.182 13.3545V17.4492H137.199V9.36398H138.182V12.6299ZM147.042 14.0625C147.042 13.8357 147.01 13.6289 146.944 13.4423C146.881 13.252 146.788 13.0892 146.664 12.9538C146.543 12.8147 146.395 12.7086 146.219 12.6354C146.043 12.5586 145.844 12.5201 145.621 12.5201C145.152 12.5201 144.781 12.6574 144.507 12.9318C144.236 13.2026 144.067 13.5795 144.002 14.0625H147.042ZM147.833 16.6698C147.712 16.8162 147.568 16.9442 147.399 17.054C147.231 17.1601 147.05 17.248 146.856 17.3175C146.666 17.387 146.468 17.4382 146.263 17.4712C146.058 17.5078 145.855 17.5261 145.654 17.5261C145.27 17.5261 144.915 17.462 144.589 17.334C144.267 17.2022 143.987 17.0119 143.749 16.7631C143.515 16.5106 143.332 16.1996 143.2 15.83C143.068 15.4604 143.003 15.0359 143.003 14.5565C143.003 14.1687 143.061 13.8064 143.178 13.4697C143.299 13.1331 143.471 12.8422 143.694 12.597C143.917 12.3481 144.19 12.1542 144.512 12.0151C144.834 11.8724 145.196 11.8011 145.599 11.8011C145.932 11.8011 146.239 11.8578 146.521 11.9712C146.806 12.081 147.052 12.242 147.257 12.4543C147.465 12.6628 147.628 12.9227 147.745 13.2337C147.862 13.5411 147.921 13.8924 147.921 14.2876C147.921 14.4413 147.904 14.5437 147.871 14.595C147.838 14.6462 147.776 14.6718 147.685 14.6718H143.969C143.98 15.0231 144.027 15.3287 144.111 15.5885C144.199 15.8483 144.32 16.066 144.474 16.2416C144.627 16.4136 144.81 16.5435 145.023 16.6314C145.235 16.7155 145.473 16.7576 145.736 16.7576C145.981 16.7576 146.192 16.7302 146.367 16.6753C146.547 16.6167 146.7 16.5545 146.828 16.4887C146.956 16.4228 147.063 16.3624 147.147 16.3075C147.235 16.249 147.31 16.2197 147.372 16.2197C147.452 16.2197 147.515 16.2508 147.558 16.313L147.833 16.6698Z" fill="white"/>
<path d="M75.6707 35.8918L73.7386 30.6114C73.6434 30.3772 73.5446 30.0991 73.4422 29.7771C73.3397 29.4551 73.2372 29.1074 73.1348 28.7342C73.0396 29.1074 72.9408 29.4587 72.8384 29.7881C72.7359 30.1101 72.6371 30.3919 72.542 30.6334L70.6208 35.8918H75.6707ZM80.8852 41.8857H78.6018C78.3456 41.8857 78.1371 41.8235 77.9761 41.6991C77.815 41.5674 77.6943 41.4064 77.6138 41.2161L76.4282 37.9776H69.8524L68.6668 41.2161C68.6082 41.3844 68.4948 41.5381 68.3265 41.6772C68.1581 41.8162 67.9496 41.8857 67.7007 41.8857H65.3954L71.6418 26.0117H74.6497L80.8852 41.8857ZM83.4729 38.9656C83.7803 39.3389 84.1133 39.6023 84.4719 39.756C84.8378 39.9097 85.233 39.9866 85.6575 39.9866C86.0673 39.9866 86.4369 39.9097 86.7663 39.756C87.0956 39.6023 87.3737 39.3681 87.6006 39.0534C87.8348 38.7387 88.0141 38.3435 88.1385 37.8678C88.2629 37.3848 88.3251 36.8176 88.3251 36.1662C88.3251 35.5076 88.2703 34.9514 88.1605 34.4976C88.058 34.0365 87.908 33.6633 87.7104 33.3779C87.5128 33.0924 87.2713 32.8838 86.9858 32.7521C86.7077 32.6204 86.3894 32.5545 86.0308 32.5545C85.4672 32.5545 84.9879 32.6753 84.5926 32.9168C84.1974 33.151 83.8242 33.484 83.4729 33.9158V38.9656ZM83.3302 32.1593C83.7913 31.6397 84.3145 31.2189 84.9 30.8968C85.4855 30.5748 86.1735 30.4138 86.9639 30.4138C87.5786 30.4138 88.1385 30.5419 88.6435 30.798C89.1558 31.0542 89.5949 31.4274 89.9609 31.9178C90.3341 32.4008 90.6195 33.0009 90.8171 33.7182C91.0221 34.4281 91.1245 35.2441 91.1245 36.1662C91.1245 37.0079 91.0111 37.7873 90.7842 38.5045C90.5573 39.2218 90.2316 39.8438 89.8072 40.3708C89.39 40.8977 88.8814 41.3112 88.2812 41.6113C87.6884 41.904 87.0224 42.0504 86.2832 42.0504C85.6538 42.0504 85.1159 41.9553 84.6695 41.765C84.2231 41.5674 83.8242 41.2966 83.4729 40.9526V45.5633H80.7614V30.6224H82.419C82.7703 30.6224 83.0009 30.7871 83.1106 31.1164L83.3302 32.1593ZM94.6344 38.9656C94.9417 39.3389 95.2747 39.6023 95.6333 39.756C95.9993 39.9097 96.3945 39.9866 96.819 39.9866C97.2288 39.9866 97.5984 39.9097 97.9277 39.756C98.2571 39.6023 98.5352 39.3681 98.7621 39.0534C98.9962 38.7387 99.1756 38.3435 99.3 37.8678C99.4244 37.3848 99.4866 36.8176 99.4866 36.1662C99.4866 35.5076 99.4317 34.9514 99.3219 34.4976C99.2195 34.0365 99.0694 33.6633 98.8718 33.3779C98.6742 33.0924 98.4327 32.8838 98.1473 32.7521C97.8692 32.6204 97.5508 32.5545 97.1922 32.5545C96.6287 32.5545 96.1493 32.6753 95.7541 32.9168C95.3589 33.151 94.9856 33.484 94.6344 33.9158V38.9656ZM94.4916 32.1593C94.9527 31.6397 95.476 31.2189 96.0615 30.8968C96.647 30.5748 97.3349 30.4138 98.1253 30.4138C98.7401 30.4138 99.3 30.5419 99.805 30.798C100.317 31.0542 100.756 31.4274 101.122 31.9178C101.496 32.4008 101.781 33.0009 101.979 33.7182C102.184 34.4281 102.286 35.2441 102.286 36.1662C102.286 37.0079 102.173 37.7873 101.946 38.5045C101.719 39.2218 101.393 39.8438 100.969 40.3708C100.551 40.8977 100.043 41.3112 99.4427 41.6113C98.8499 41.904 98.1839 42.0504 97.4447 42.0504C96.8153 42.0504 96.2774 41.9553 95.8309 41.765C95.3845 41.5674 94.9856 41.2966 94.6344 40.9526V45.5633H91.9228V30.6224H93.5805C93.9318 30.6224 94.1623 30.7871 94.2721 31.1164L94.4916 32.1593ZM115.987 28.8989C115.899 29.0526 115.804 29.166 115.701 29.2392C115.606 29.305 115.486 29.338 115.339 29.338C115.186 29.338 115.017 29.2831 114.834 29.1733C114.659 29.0562 114.446 28.9281 114.198 28.7891C113.949 28.65 113.656 28.5256 113.319 28.4158C112.99 28.2987 112.598 28.2402 112.145 28.2402C111.735 28.2402 111.376 28.2914 111.069 28.3939C110.761 28.489 110.502 28.6244 110.289 28.8001C110.084 28.9757 109.931 29.1879 109.828 29.4368C109.726 29.6783 109.675 29.9454 109.675 30.2382C109.675 30.6114 109.777 30.9225 109.982 31.1713C110.194 31.4201 110.472 31.6324 110.816 31.808C111.16 31.9837 111.552 32.141 111.991 32.2801C112.43 32.4191 112.88 32.5691 113.341 32.7302C113.802 32.8838 114.252 33.0668 114.692 33.2791C115.131 33.484 115.522 33.7474 115.866 34.0695C116.21 34.3842 116.485 34.7721 116.69 35.2331C116.902 35.6942 117.008 36.2541 117.008 36.9127C117.008 37.63 116.883 38.3033 116.635 38.9327C116.393 39.5548 116.034 40.1 115.559 40.5684C115.09 41.0295 114.516 41.3954 113.835 41.6662C113.155 41.9297 112.375 42.0614 111.497 42.0614C110.992 42.0614 110.494 42.0102 110.004 41.9077C109.514 41.8126 109.042 41.6735 108.588 41.4905C108.141 41.3076 107.721 41.088 107.325 40.8319C106.93 40.5757 106.579 40.2903 106.271 39.9756L107.139 38.5594C107.212 38.457 107.307 38.3728 107.424 38.3069C107.541 38.2338 107.666 38.1972 107.797 38.1972C107.98 38.1972 108.178 38.274 108.39 38.4277C108.602 38.5741 108.855 38.7387 109.148 38.9217C109.44 39.1047 109.781 39.273 110.169 39.4267C110.564 39.5731 111.036 39.6462 111.585 39.6462C112.426 39.6462 113.078 39.4486 113.539 39.0534C114 38.6509 114.23 38.0764 114.23 37.3299C114.23 36.9127 114.124 36.5724 113.912 36.309C113.707 36.0455 113.433 35.8259 113.089 35.6503C112.745 35.4673 112.353 35.3136 111.914 35.1892C111.475 35.0648 111.029 34.9294 110.575 34.783C110.121 34.6367 109.675 34.461 109.236 34.2561C108.796 34.0512 108.405 33.784 108.061 33.4547C107.717 33.1254 107.439 32.7155 107.227 32.2252C107.022 31.7275 106.919 31.1164 106.919 30.3919C106.919 29.8137 107.033 29.2502 107.259 28.7013C107.494 28.1524 107.83 27.6657 108.269 27.2412C108.709 26.8167 109.25 26.4764 109.894 26.2203C110.538 25.9641 111.277 25.836 112.112 25.836C113.048 25.836 113.912 25.9824 114.703 26.2751C115.493 26.5679 116.166 26.9777 116.722 27.5047L115.987 28.8989ZM121.1 42.0614C120.119 42.0614 119.365 41.7869 118.838 41.238C118.319 40.6818 118.059 39.917 118.059 38.9437V32.6533H116.906C116.76 32.6533 116.635 32.6057 116.533 32.5106C116.43 32.4155 116.379 32.2727 116.379 32.0825V31.0066L118.191 30.7102L118.761 27.6364C118.798 27.49 118.868 27.3766 118.97 27.2961C119.072 27.2156 119.204 27.1753 119.365 27.1753H120.77V30.7212H123.778V32.6533H120.77V38.757C120.77 39.1083 120.855 39.3828 121.023 39.5804C121.199 39.778 121.436 39.8768 121.736 39.8768C121.905 39.8768 122.044 39.8585 122.154 39.8219C122.271 39.778 122.369 39.7341 122.45 39.6902C122.538 39.6462 122.615 39.606 122.681 39.5694C122.746 39.5255 122.812 39.5035 122.878 39.5035C122.959 39.5035 123.025 39.5255 123.076 39.5694C123.127 39.606 123.182 39.6645 123.24 39.745L124.053 41.0624C123.658 41.3917 123.204 41.6406 122.692 41.8089C122.179 41.9772 121.649 42.0614 121.1 42.0614ZM129.095 30.4468C129.93 30.4468 130.687 30.5821 131.368 30.8529C132.056 31.1237 132.641 31.5079 133.124 32.0056C133.614 32.5033 133.991 33.1107 134.255 33.8279C134.518 34.5452 134.65 35.3466 134.65 36.2321C134.65 37.125 134.518 37.93 134.255 38.6473C133.991 39.3645 133.614 39.9756 133.124 40.4806C132.641 40.9856 132.056 41.3734 131.368 41.6442C130.687 41.915 129.93 42.0504 129.095 42.0504C128.254 42.0504 127.489 41.915 126.801 41.6442C126.113 41.3734 125.524 40.9856 125.033 40.4806C124.55 39.9756 124.173 39.3645 123.903 38.6473C123.639 37.93 123.507 37.125 123.507 36.2321C123.507 35.3466 123.639 34.5452 123.903 33.8279C124.173 33.1107 124.55 32.5033 125.033 32.0056C125.524 31.5079 126.113 31.1237 126.801 30.8529C127.489 30.5821 128.254 30.4468 129.095 30.4468ZM129.095 39.9646C130.032 39.9646 130.724 39.6499 131.17 39.0205C131.624 38.3911 131.851 37.469 131.851 36.2541C131.851 35.0392 131.624 34.1134 131.17 33.4767C130.724 32.8399 130.032 32.5216 129.095 32.5216C128.144 32.5216 127.438 32.8436 126.977 33.4876C126.523 34.1244 126.296 35.0465 126.296 36.2541C126.296 37.4616 126.523 38.3838 126.977 39.0205C127.438 39.6499 128.144 39.9646 129.095 39.9646ZM137.959 32.5765C138.311 31.9032 138.728 31.3762 139.211 30.9956C139.694 30.6078 140.265 30.4138 140.923 30.4138C141.443 30.4138 141.86 30.5273 142.175 30.7541L141.999 32.785C141.963 32.9168 141.908 33.0119 141.834 33.0705C141.769 33.1217 141.677 33.1473 141.56 33.1473C141.45 33.1473 141.286 33.129 141.066 33.0924C140.854 33.0558 140.645 33.0375 140.44 33.0375C140.14 33.0375 139.873 33.0815 139.639 33.1693C139.405 33.2571 139.192 33.3852 139.002 33.5535C138.819 33.7145 138.654 33.9121 138.508 34.1463C138.369 34.3805 138.237 34.6476 138.113 34.9477V41.8857H135.401V30.6224H136.993C137.271 30.6224 137.465 30.6736 137.575 30.7761C137.685 30.8712 137.758 31.0469 137.795 31.303L137.959 32.5765ZM149.209 34.9587C149.209 34.6074 149.158 34.278 149.056 33.9707C148.961 33.656 148.814 33.3815 148.617 33.1473C148.419 32.9131 148.166 32.7302 147.859 32.5984C147.559 32.4594 147.208 32.3898 146.805 32.3898C146.022 32.3898 145.404 32.6131 144.95 33.0595C144.503 33.5059 144.218 34.139 144.094 34.9587H149.209ZM144.039 36.5944C144.083 37.1726 144.185 37.6739 144.346 38.0984C144.507 38.5155 144.719 38.8632 144.983 39.1413C145.246 39.4121 145.557 39.617 145.916 39.756C146.282 39.8878 146.684 39.9536 147.124 39.9536C147.563 39.9536 147.94 39.9024 148.254 39.7999C148.576 39.6975 148.854 39.584 149.089 39.4596C149.33 39.3352 149.539 39.2218 149.714 39.1193C149.897 39.0168 150.073 38.9656 150.241 38.9656C150.468 38.9656 150.636 39.0498 150.746 39.2181L151.526 40.2061C151.226 40.5574 150.889 40.8538 150.516 41.0953C150.142 41.3295 149.751 41.5198 149.341 41.6662C148.939 41.8052 148.525 41.904 148.101 41.9626C147.683 42.0211 147.277 42.0504 146.882 42.0504C146.099 42.0504 145.371 41.9223 144.697 41.6662C144.024 41.4027 143.439 41.0185 142.941 40.5135C142.443 40.0012 142.052 39.3718 141.766 38.6253C141.481 37.8715 141.338 37.0006 141.338 36.0126C141.338 35.2441 141.463 34.5232 141.711 33.8499C141.96 33.1693 142.315 32.5801 142.776 32.0825C143.245 31.5775 143.812 31.1786 144.478 30.8859C145.151 30.5931 145.909 30.4468 146.75 30.4468C147.46 30.4468 148.115 30.5602 148.715 30.7871C149.315 31.0139 149.831 31.3469 150.263 31.7861C150.695 32.2179 151.032 32.7521 151.273 33.3888C151.522 34.0182 151.646 34.7391 151.646 35.5515C151.646 35.9613 151.603 36.2394 151.515 36.3858C151.427 36.5249 151.259 36.5944 151.01 36.5944H144.039Z" fill="white"/>
</svg>
