<svg width="132" height="132" viewBox="0 0 132 132" fill="none" xmlns="http://www.w3.org/2000/svg">
<path d="M109.21 21.8418H32.7628C26.7399 21.8418 21.8418 26.7399 21.8418 32.7628V60.0653H32.7628V43.6838L67.71 69.8942C68.6555 70.6023 69.805 70.9849 70.9863 70.9849C72.1676 70.9849 73.3171 70.6023 74.2626 69.8942L109.21 43.6838V92.8283H65.5258V103.749H109.21C115.233 103.749 120.131 98.8512 120.131 92.8283V32.7628C120.131 26.7399 115.233 21.8418 109.21 21.8418ZM70.9863 58.7002L36.3995 32.7628H105.573L70.9863 58.7002Z" fill="#0D5362"/>
<path d="M10.9207 65.5264H49.1442V76.4474H10.9207V65.5264ZM21.8417 81.9079H54.6047V92.8289H21.8417V81.9079ZM38.2232 98.2894H60.0652V109.21H38.2232V98.2894Z" fill="#0D5362"/>
</svg>
