<svg width="208" height="56" viewBox="0 0 208 56" fill="none" xmlns="http://www.w3.org/2000/svg">
<rect width="208" height="55.9542" rx="10" fill="#E2F8F9"/>
<path d="M59.1876 32.5551C59.0625 33.2976 58.4799 33.7047 57.8685 34.0849C57.6808 34.2011 57.493 34.3174 57.3005 34.4248C56.9346 34.6216 56.718 34.9123 56.6072 35.2881C56.4821 35.7219 56.3376 36.1513 56.1884 36.5763C56.1017 36.8267 55.9525 37.028 55.6974 37.1756C55.5866 37.2382 55.5048 37.4038 55.4759 37.5379C55.3892 37.9852 55.3459 38.437 55.2593 38.8843C55.1919 39.2242 55.11 39.5642 54.9897 39.8907C54.7875 40.4364 54.6768 40.9955 54.6334 41.568C54.5901 42.1674 54.5227 42.7623 54.2579 43.3214C53.8632 44.1623 53.1603 44.6186 52.1975 44.7483C51.3646 44.8601 50.5366 44.7841 49.7278 44.6007C48.5531 44.3323 47.3929 44.0192 46.2231 43.7419C45.6117 43.5987 44.9858 43.4914 44.3648 43.3751C44.0615 43.3214 44.0519 43.3348 43.9171 43.5943C43.5416 44.301 43.325 45.048 43.325 45.8352C43.325 46.7074 43.5753 47.5215 44.0519 48.2685C44.6152 49.1452 45.1928 50.0084 45.7705 50.8717C45.8668 51.0148 45.9872 51.1535 46.1172 51.2698C46.2183 51.3637 46.2568 51.4577 46.2568 51.5829C46.2568 51.6947 46.276 51.8021 46.2857 51.9139C46.2712 51.9273 46.2568 51.9407 46.2423 51.9542C45.9776 51.8155 45.6983 51.7037 45.4576 51.5337C44.7981 51.064 44.1337 50.5944 43.5175 50.08C42.5114 49.248 41.5245 48.3982 40.5664 47.5215C40.2631 47.2442 40.0513 46.864 39.8299 46.5151C39.4496 45.9068 39.1511 45.2627 38.9826 44.5738C38.8382 43.9834 38.8285 43.384 38.8719 42.7847C39.0018 40.8792 39.9262 39.2958 41.2019 37.8555C42.8291 36.0172 44.413 34.1385 45.8428 32.1615C47.34 30.0905 48.6591 27.9346 49.6026 25.5908C50.1129 24.3249 50.4932 23.0278 50.7099 21.6904C50.8639 20.7466 50.9217 19.8028 50.8688 18.8546C50.7436 16.475 50.0263 14.2609 48.6398 12.2481C47.884 11.1522 46.9163 10.2352 45.8235 9.43012C44.1963 8.23585 42.3814 7.38152 40.3931 6.84925C39.4062 6.58534 38.4001 6.41089 37.3746 6.32591C36.2818 6.23645 35.1986 6.28119 34.1106 6.38854C32.2957 6.57193 30.5578 7.01475 28.9162 7.74831C25.6522 9.20648 23.2836 11.4564 21.9501 14.6098C21.5553 15.5401 21.3002 16.5018 21.1461 17.4903C21.0161 18.3268 20.968 19.1632 20.9824 20.0086C20.9969 20.93 21.1654 21.8291 21.4253 22.7147C22.0079 24.6649 22.5904 26.6106 23.1921 28.5518C23.4521 29.3883 23.9287 30.1308 24.4294 30.8599C25.6088 32.5775 26.9953 34.1519 28.3481 35.7488C29.1906 36.7507 30.0282 37.7571 30.8466 38.7769C31.5062 39.5955 31.8432 40.5437 32.0406 41.5412C32.185 42.2703 32.2091 43.0038 32.1032 43.7329C31.9587 44.717 31.588 45.6294 31.02 46.4703C30.3989 47.3962 29.5468 48.1164 28.6418 48.7873C27.8426 49.3778 27.0579 49.9861 26.2684 50.5899C26.0036 50.7912 25.7485 51.0014 25.4789 51.1848C25.3633 51.2653 25.2093 51.3056 25.0648 51.3414C25.0023 51.3593 24.9012 51.3414 24.8626 51.3011C24.8289 51.2653 24.8241 51.1624 24.853 51.1132C25.0215 50.8449 25.1948 50.581 25.3778 50.3215C25.8207 49.6998 26.2925 49.096 26.7113 48.4653C27.1783 47.7586 27.4912 46.9847 27.6163 46.1573C27.7415 45.3208 27.6163 44.5112 27.2986 43.7285C27.212 43.5227 27.1012 43.3304 27.0194 43.1246C26.9616 42.9681 26.8605 42.9502 26.7017 42.9591C25.9747 43.0083 25.2719 43.1738 24.569 43.3483C23.3703 43.6524 22.1715 43.9655 20.968 44.2518C20.2796 44.4128 19.5719 44.4665 18.8594 44.3457C17.781 44.1623 17.0974 43.563 16.7797 42.6058C16.6256 42.145 16.5678 41.653 16.4427 41.1834C16.2597 40.4722 16.0431 39.7655 15.865 39.0543C15.7687 38.6651 15.6917 38.2626 15.6772 37.8689C15.6628 37.444 15.5232 37.0728 15.2728 36.7283C15.1092 36.5002 14.9214 36.2855 14.7914 36.0395C14.6759 35.8159 14.5892 35.5699 14.5652 35.3238C14.5266 34.9213 14.3822 34.5724 14.0597 34.3174C13.5494 33.9059 13.0198 33.5168 12.4903 33.1321C12.2736 32.9711 12.0329 32.8414 11.8066 32.6982C11.8066 32.6669 11.8066 32.6356 11.8066 32.5998C11.8403 32.3717 11.8644 32.1436 11.9077 31.9199C12.0233 31.3206 12.3362 30.8062 12.7069 30.3142C13.0535 29.8579 13.4049 29.4062 13.7179 28.932C14.1945 28.2119 14.4255 27.4023 14.5892 26.5793C14.7385 25.8413 14.8011 25.0988 14.6518 24.3563C14.5459 23.8285 14.4015 23.3006 14.2522 22.7818C13.9297 21.6904 13.6938 20.5856 13.6601 19.4495C13.6216 18.2328 13.713 17.0162 13.8719 15.8085C14.0115 14.7484 14.2089 13.6928 14.4978 12.6551C14.7962 11.5727 15.1477 10.5126 15.7494 9.53748C15.9468 9.2199 16.1779 8.92468 16.4956 8.67867C16.4956 8.70103 16.5053 8.70551 16.5004 8.70998C16.332 9.37645 16.0431 9.99818 15.7446 10.6199C15.3547 11.4295 15.0706 12.2704 15.138 13.165C15.1814 13.7241 15.3017 14.2743 15.3836 14.8334C15.3836 14.8558 15.398 14.8737 15.4076 14.8916C15.4221 14.8871 15.4413 14.8781 15.4558 14.8737C15.5135 14.6992 15.5858 14.5337 15.6195 14.3548C15.7254 13.7867 15.8168 13.2142 15.9083 12.6417C16.0624 11.7068 16.356 10.8212 16.8278 9.98029C17.4392 8.89784 18.2335 7.94064 19.1627 7.07737C20.0533 6.24988 21.0354 5.52973 22.1812 5.02877C22.4989 4.89011 22.8311 4.78723 23.1584 4.66646C23.1681 4.68435 23.1777 4.70225 23.1873 4.71567C23.091 4.79618 22.9948 4.88563 22.8937 4.9572C22.6 5.16295 22.2967 5.36424 21.9982 5.56552C20.9873 6.2454 20.0389 6.97896 19.2638 7.89591C18.585 8.70103 18.0554 9.57772 17.7425 10.5618C17.4199 11.5771 17.2611 12.6193 17.213 13.6794C17.1744 14.6411 17.1985 15.5983 17.4537 16.5376C17.5885 17.0296 17.7618 17.5037 18.1469 17.8839C18.1999 17.9376 18.2721 17.9823 18.3346 18.0315C18.3539 17.79 18.3491 17.5708 18.3202 17.3561C18.2624 16.9088 18.1421 16.466 18.1469 16.0232C18.1517 15.5222 18.2673 15.0257 18.3395 14.5293C18.4598 13.7331 18.662 12.9548 18.9653 12.1989C19.8222 10.1011 21.2905 8.45056 23.2162 7.13552C25.0504 5.8831 27.106 5.05561 29.3109 4.55017C30.3652 4.30864 31.4292 4.15208 32.5124 4.06709C32.6809 4.05367 32.8493 4.02236 33.0178 4C34.1732 4 35.3286 4 36.484 4C36.5322 4.01342 36.5803 4.0313 36.6333 4.03578C37.004 4.07156 37.3843 4.08498 37.7502 4.13866C38.6986 4.28179 39.6518 4.40256 40.5905 4.59937C42.6847 5.03772 44.6729 5.73101 46.5264 6.74636C48.4713 7.81092 50.0889 9.18858 51.2539 10.9956C51.7401 11.7516 52.1301 12.5522 52.3948 13.3976C52.6885 14.328 52.7703 15.2807 52.7992 16.2379C52.8185 16.8552 52.8185 17.4724 52.8281 18.0897C52.8281 18.1344 52.8377 18.1747 52.8426 18.2194C52.8618 18.2239 52.8859 18.2328 52.9051 18.2373C53.0399 18.0136 53.1988 17.8034 53.2999 17.5708C53.5791 16.8909 53.6947 16.1798 53.7958 15.4596C53.9354 14.489 53.9209 13.5273 53.7524 12.5612C53.5551 11.425 53.1314 10.3694 52.4863 9.38986C51.6823 8.16428 50.604 7.16682 49.4149 6.27224C49.0009 5.96361 48.5965 5.64603 48.1873 5.3374C48.1969 5.32398 48.2065 5.31504 48.2113 5.30162C48.3028 5.32399 48.3991 5.34635 48.4906 5.37319C49.6123 5.70419 50.5655 6.30802 51.4079 7.055C52.8137 8.30294 53.8247 9.79243 54.5083 11.4742C54.9223 12.4851 55.1871 13.5273 55.2593 14.6098C55.2737 14.8379 55.2881 15.0615 55.3074 15.3075C55.3459 15.2852 55.3652 15.2762 55.3796 15.2628C55.423 15.2181 55.4663 15.1778 55.5048 15.1286C55.8273 14.7037 55.9669 14.2161 55.991 13.7107C56.0247 13.0219 55.8129 12.3644 55.5578 11.7247C55.2208 10.8883 54.8597 10.0608 54.5131 9.22437C54.4986 9.19305 54.4938 9.16175 54.489 9.13044C54.5083 9.12149 54.5275 9.10807 54.542 9.09912C54.7441 9.34513 54.9656 9.57772 55.1437 9.83715C55.6685 10.611 55.9958 11.4608 56.2702 12.333C56.6602 13.572 56.9394 14.8334 57.1031 16.1171C57.1946 16.8507 57.2908 17.5842 57.3342 18.3223C57.3727 18.9798 57.3486 19.6418 57.3438 20.2993C57.339 20.9837 57.2186 21.6546 57.0501 22.3166C56.8431 23.1262 56.6072 23.9313 56.4387 24.7499C56.2125 25.8591 56.328 26.9595 56.7083 28.0285C57.0164 28.9052 57.5508 29.6701 58.0852 30.4349C58.5281 31.0656 59.048 31.6561 59.1924 32.4299V32.5596L59.1876 32.5551Z" fill="#207384"/>
<path d="M38.3064 30.1033C38.1379 29.7365 38.1524 29.3742 38.239 29.0074C38.3738 28.4215 38.6675 27.8982 38.9948 27.3972C39.6544 26.3819 40.4583 25.4649 41.3153 24.5972C42.0181 23.8815 42.3936 23.0451 42.5814 22.1236C42.9713 20.2405 42.5814 18.505 41.3297 16.9753C40.3813 15.8168 39.1393 15.0117 37.6084 14.6494C36.2171 14.3184 34.8498 14.4392 33.526 14.9312C32.0913 15.4635 30.9359 16.3223 30.079 17.5165C29.535 18.2769 29.1836 19.1089 29.0536 20.0169C28.8658 21.3185 29.1643 22.5351 29.7998 23.6981C30.2475 24.5122 30.8156 25.2368 31.5858 25.8048C32.3561 26.3774 32.7605 27.1691 33.1023 27.9966C33.2901 28.4573 33.473 28.918 33.5308 29.4145C33.5404 29.5129 33.603 29.5308 33.6944 29.5308C33.9833 29.5308 34.2721 29.5263 34.561 29.5308C34.6862 29.5308 34.7199 29.4905 34.7199 29.3787C34.715 29.0477 34.7199 28.7122 34.7199 28.3812C34.7199 26.7397 34.7199 25.0981 34.7199 23.4521C34.7199 23.2106 34.7199 23.2195 34.4743 23.1614C34.1133 23.0719 33.7474 22.9914 33.4008 22.8661C32.9531 22.7096 32.7749 22.3517 32.7124 21.9358C32.6787 21.6898 32.6401 21.4482 32.8327 21.2335C33.1216 20.9204 33.4826 20.7191 33.9159 20.6431C34.7199 20.5 35.1243 20.992 35.2542 21.569C35.3024 21.7971 35.3216 22.0342 35.3457 22.2668C35.3553 22.3696 35.3987 22.4144 35.519 22.4099C35.726 22.4009 35.933 22.4054 36.1448 22.4099C36.2604 22.4099 36.3037 22.3741 36.3326 22.2712C36.4578 21.8284 36.6166 21.399 36.9344 21.0367C37.1173 20.8265 37.334 20.6655 37.6276 20.6073C37.9839 20.5357 38.2872 20.6431 38.5567 20.8578C39.1393 21.323 39.3126 22.1594 38.7252 22.7051C38.4797 22.9332 38.162 23.0316 37.8443 23.1345C37.5843 23.215 37.3243 23.3045 37.0595 23.385C36.9777 23.4118 36.9392 23.4431 36.9729 23.5237C37.2617 24.2617 37.204 25.031 37.1991 25.8004C37.1991 26.5339 37.1991 27.272 37.1991 28.0055C37.1991 28.4081 37.2184 28.8107 37.1991 29.2132C37.1847 29.6158 36.9055 29.8707 36.5348 30.0944C36.5204 29.9199 36.5059 29.7634 36.5011 29.6068C36.4626 28.3141 36.4241 27.0215 36.3856 25.7288C36.3615 24.946 36.3278 24.1633 36.3037 23.3805C36.3037 23.2374 36.2411 23.1971 36.0967 23.2061C35.9186 23.215 35.7405 23.215 35.5575 23.2061C35.4035 23.1971 35.3601 23.2463 35.365 23.3895C35.3842 24.5166 35.3938 25.6438 35.4035 26.771C35.4083 27.4732 35.4131 28.1755 35.4035 28.8822C35.3987 29.1551 35.3553 29.4279 35.2976 29.6918C35.2302 30.0183 35.0328 30.1659 34.6814 30.1659C34.2047 30.1659 33.7233 30.1436 33.2467 30.1346C33.1312 30.1346 33.1264 30.0586 33.1071 29.987C32.9049 29.2445 32.6498 28.5199 32.2839 27.8266C31.8602 27.0304 31.2681 26.3505 30.6182 25.702C30.1849 25.2726 29.7565 24.8342 29.3761 24.3646C28.8851 23.7562 28.6588 23.0406 28.5337 22.2981C28.4229 21.654 28.3892 21.0054 28.4374 20.3568C28.4952 19.5383 28.6973 18.7466 29.1017 18.013C29.5687 17.1721 30.1127 16.3759 30.8396 15.7005C31.6966 14.8999 32.7364 14.4436 33.9159 14.2379C35.028 14.0455 36.1545 14.0142 37.2762 14.05C37.8683 14.0679 38.4364 14.2379 38.966 14.4749C40.5835 15.1951 41.8208 16.2954 42.6873 17.7491C43.0099 18.2903 43.1832 18.8763 43.2602 19.4891C43.3372 20.1063 43.4672 20.7281 43.4335 21.3409C43.3709 22.4681 43.058 23.546 42.2877 24.454C41.6282 25.2323 40.9398 25.9927 40.2465 26.7486C39.8132 27.2228 39.5485 27.764 39.3607 28.3499C39.2307 28.7614 39.1056 29.1729 38.966 29.58C38.8697 29.8618 38.6434 30.0228 38.3209 30.1167L38.3064 30.1033ZM36.9296 22.401C37.3773 22.401 37.7913 22.401 38.2053 22.401C38.316 22.401 38.316 22.3339 38.316 22.2578C38.316 21.9894 38.316 21.7211 38.316 21.4527C38.316 21.3453 38.2727 21.314 38.162 21.3185C37.9453 21.323 37.7239 21.3185 37.5024 21.3185C37.2746 21.3185 37.1446 21.4259 37.1125 21.6406C37.1125 21.6406 37.1029 21.6808 37.0932 21.7032C37.0403 21.9268 36.9825 22.1505 36.9199 22.401H36.9296ZM34.147 22.401C34.2914 22.401 34.4358 22.401 34.5802 22.401C34.6765 22.401 34.7199 22.3607 34.7102 22.2757C34.691 22.0744 34.6717 21.8731 34.6476 21.6674C34.6332 21.5198 34.5369 21.4169 34.3877 21.3767C34.0507 21.2782 33.7137 21.2693 33.4152 21.4795C33.3719 21.5108 33.3382 21.5958 33.3478 21.645C33.396 21.8553 33.4537 22.061 33.526 22.2623C33.55 22.3204 33.6367 22.3831 33.7041 22.3965C33.8437 22.4188 33.9929 22.401 34.1373 22.401H34.147Z" fill="#207384"/>
<path d="M38.2635 32.2547C38.2779 32.6394 38.2057 32.9838 38.0516 33.3059C37.9361 33.5474 37.7917 33.771 37.6665 34.0081C37.6232 34.0886 37.5654 34.102 37.4739 34.0976C36.8144 34.0528 36.15 34.017 35.4905 33.9768C34.9561 33.9455 34.4218 33.9097 33.8585 33.8739C34.0077 33.6503 34.2099 33.5071 34.4747 33.4848C34.7539 33.4579 35.038 33.4535 35.322 33.4579C35.9623 33.4669 36.6026 33.4892 37.2429 33.5071C37.3777 33.5116 37.4306 33.4713 37.421 33.3416C37.4114 33.1582 37.4114 32.9749 37.421 32.7959C37.4306 32.6573 37.368 32.626 37.2284 32.626C36.0778 32.626 34.9321 32.626 33.7815 32.6304C33.6178 32.6304 33.5504 32.5857 33.5071 32.4426C33.406 32.1295 33.2664 31.8298 33.1845 31.5167C33.1267 31.2886 33.1364 31.0426 33.1123 30.7876H38.7064V31.3691H34.0366C33.8922 31.87 34.1955 32.2592 34.7251 32.2592C35.8275 32.2592 36.9299 32.2592 38.0324 32.2592C38.0998 32.2592 38.1672 32.2592 38.2635 32.2592V32.2547Z" fill="#207384"/>
<path d="M28.9965 28.2827C29.1506 29.0565 28.0337 29.9914 27.042 29.8706C27.2346 29.6022 27.4031 29.3428 27.5956 29.1013C27.7208 28.9447 27.8989 28.8195 28.0289 28.6629C28.2792 28.3632 28.6114 28.2648 29.0013 28.2872L28.9965 28.2827Z" fill="#207384"/>
<path d="M28.8041 15.8527C28.0868 15.3696 27.3936 14.8642 27.0518 14.0322C27.3695 14.0322 27.6487 14.0635 27.8894 14.2156C28.3034 14.484 28.6645 14.8105 28.9389 15.2041C29.1219 15.468 29.0785 15.6604 28.8041 15.8527Z" fill="#207384"/>
<path d="M42.64 15.6419C42.5919 14.9844 43.3043 14.0943 44.325 14.0361C44.3731 14.6444 43.7136 15.5703 42.64 15.6419Z" fill="#207384"/>
<path d="M26.2955 21.9577C26.1992 22.2798 25.9874 22.3782 25.6648 22.3603C25.1834 22.3379 24.6972 22.3603 24.2109 22.3513C23.8739 22.3513 23.8065 22.2977 23.7199 21.989C23.7006 21.9219 23.6862 21.8548 23.6621 21.752C24.5527 21.7967 25.4434 21.6267 26.2955 21.9532V21.9577Z" fill="#207384"/>
<path d="M45.5283 21.7656H45.7979C46.4623 21.7656 47.1266 21.7656 47.7862 21.7656C47.921 21.7656 47.9691 21.7925 47.9787 21.9311C47.9932 22.119 47.9113 22.1771 47.7284 22.2353C47.1411 22.4276 46.5441 22.3516 45.9472 22.3516C45.7979 22.3516 45.6824 22.28 45.639 22.1369C45.6053 22.0251 45.5716 21.9132 45.5283 21.7656Z" fill="#207384"/>
<path d="M35.8085 10.6772C36.1551 11.4019 36.0299 12.1533 36.0155 12.9361C35.8374 12.8779 35.6785 12.8421 35.5341 12.775C35.4763 12.7482 35.4234 12.6677 35.4185 12.6095C35.3993 12.0952 35.3945 11.5853 35.3848 11.0709C35.38 10.807 35.6111 10.7712 35.8085 10.6772Z" fill="#207384"/>
<path d="M42.625 28.4883C42.962 28.4883 43.2701 28.5151 43.5012 28.7656C43.6456 28.9177 43.7997 29.0653 43.9633 29.1995C44.204 29.3918 44.3533 29.6155 44.3388 29.9196C44.3388 29.9643 44.3533 30.0136 44.3629 30.0628C43.7756 29.9912 42.8176 29.1279 42.625 28.4883Z" fill="#207384"/>
<path d="M77.7596 29.0955C78.3033 29.0955 78.7808 29.0258 79.192 28.8864C79.6102 28.747 79.9553 28.5519 80.2271 28.3009C80.5059 28.043 80.715 27.7329 80.8544 27.3704C80.9938 27.008 81.0635 26.6037 81.0635 26.1576C81.0635 25.7185 80.9938 25.3246 80.8544 24.9761C80.722 24.6276 80.5199 24.3314 80.248 24.0874C79.9762 23.8435 79.6312 23.6587 79.2129 23.5333C78.8017 23.4008 78.3173 23.3346 77.7596 23.3346H75.5222V29.0955H77.7596ZM77.7596 21.4213C78.7425 21.4213 79.5928 21.5363 80.3108 21.7663C81.0357 21.9963 81.6316 22.3205 82.0986 22.7387C82.5726 23.1499 82.9246 23.6483 83.1546 24.2338C83.3846 24.8123 83.4997 25.4536 83.4997 26.1576C83.4997 26.8755 83.3777 27.5342 83.1337 28.1336C82.8898 28.7261 82.5273 29.2384 82.0464 29.6706C81.5654 30.0958 80.966 30.4304 80.248 30.6743C79.5371 30.9113 78.7076 31.0298 77.7596 31.0298H75.5222V36.4771H73.0756V21.4213H77.7596ZM91.5426 27.7468C91.4869 27.8444 91.4241 27.9141 91.3544 27.9559C91.2847 27.9977 91.1976 28.0186 91.093 28.0186C90.9745 28.0186 90.8456 27.9838 90.7062 27.9141C90.5668 27.8374 90.403 27.7538 90.2148 27.6632C90.0266 27.5725 89.8035 27.4924 89.5456 27.4227C89.2947 27.346 88.9985 27.3077 88.6569 27.3077C88.3781 27.3077 88.1237 27.3425 87.8937 27.4122C87.6706 27.475 87.479 27.5691 87.3186 27.6945C87.1653 27.813 87.0468 27.9559 86.9632 28.1232C86.8795 28.2835 86.8377 28.4578 86.8377 28.646C86.8377 28.8969 86.9144 29.106 87.0677 29.2733C87.2211 29.4406 87.4232 29.5869 87.6741 29.7124C87.9251 29.8309 88.2108 29.9389 88.5315 30.0365C88.8521 30.1341 89.1797 30.2387 89.5143 30.3502C89.8489 30.4617 90.1765 30.5907 90.4971 30.737C90.8177 30.8834 91.1035 31.0646 91.3544 31.2807C91.6054 31.4898 91.8075 31.7477 91.9608 32.0544C92.1142 32.3541 92.1909 32.7201 92.1909 33.1522C92.1909 33.6541 92.1002 34.1176 91.919 34.5428C91.7378 34.968 91.4729 35.3374 91.1244 35.6511C90.7759 35.9647 90.3403 36.2087 89.8175 36.383C89.3017 36.5572 88.7092 36.6443 88.0401 36.6443C87.6706 36.6443 87.3117 36.6095 86.9632 36.5398C86.6216 36.4771 86.294 36.3899 85.9804 36.2784C85.6737 36.1599 85.3844 36.0205 85.1126 35.8602C84.8477 35.6999 84.6107 35.5256 84.4016 35.3374L84.9244 34.4801C84.9871 34.3755 85.0638 34.2954 85.1544 34.2396C85.252 34.1769 85.3705 34.1455 85.5099 34.1455C85.6562 34.1455 85.7991 34.1943 85.9385 34.2919C86.0849 34.3825 86.2522 34.4836 86.4404 34.5951C86.6356 34.7066 86.8691 34.8112 87.1409 34.9087C87.4127 34.9994 87.7508 35.0447 88.1551 35.0447C88.4896 35.0447 88.7789 35.0063 89.0229 34.9297C89.2668 34.846 89.469 34.7345 89.6293 34.5951C89.7896 34.4557 89.9081 34.2988 89.9848 34.1246C90.0614 33.9434 90.0998 33.7517 90.0998 33.5495C90.0998 33.2777 90.0231 33.0547 89.8698 32.8804C89.7164 32.7061 89.5108 32.5563 89.2529 32.4308C89.002 32.3054 88.7127 32.1938 88.3851 32.0962C88.0645 31.9987 87.7369 31.8941 87.4023 31.7826C87.0677 31.6711 86.7366 31.5421 86.409 31.3957C86.0884 31.2494 85.7991 31.0646 85.5412 30.8416C85.2903 30.6116 85.0882 30.3363 84.9348 30.0156C84.7815 29.688 84.7048 29.2907 84.7048 28.8237C84.7048 28.3985 84.7884 27.9942 84.9557 27.6109C85.13 27.2275 85.3809 26.8895 85.7085 26.5967C86.0431 26.304 86.4508 26.0739 86.9318 25.9067C87.4197 25.7324 87.9808 25.6453 88.6151 25.6453C89.3331 25.6453 89.9848 25.7603 90.5703 25.9903C91.1558 26.2203 91.6472 26.534 92.0445 26.9313L91.5426 27.7468ZM103.561 25.8126L97.6853 39.5091C97.6087 39.6694 97.5146 39.7949 97.403 39.8855C97.2985 39.9761 97.1347 40.0214 96.9116 40.0214H95.2492L97.2148 35.7556L92.8654 25.8126H94.8206C95.0087 25.8126 95.1516 25.8579 95.2492 25.9485C95.3538 26.0321 95.4304 26.1332 95.4792 26.2517L98.0199 32.3054C98.0826 32.4796 98.1384 32.6539 98.1872 32.8281C98.2429 32.9954 98.2952 33.1697 98.344 33.3509C98.3998 33.1697 98.4555 32.9919 98.5113 32.8177C98.5671 32.6434 98.6298 32.4692 98.6995 32.2949L101.136 26.2517C101.184 26.1262 101.265 26.0217 101.376 25.938C101.495 25.8544 101.624 25.8126 101.763 25.8126H103.561ZM112.256 27.9036C112.187 27.9942 112.12 28.0639 112.058 28.1127C111.995 28.1615 111.904 28.1859 111.786 28.1859C111.667 28.1859 111.542 28.1441 111.409 28.0605C111.284 27.9768 111.131 27.8862 110.949 27.7886C110.775 27.6841 110.562 27.59 110.312 27.5063C110.061 27.4227 109.747 27.3809 109.371 27.3809C108.883 27.3809 108.454 27.468 108.085 27.6422C107.722 27.8165 107.415 28.0674 107.164 28.395C106.92 28.7157 106.736 29.1095 106.61 29.5765C106.492 30.0365 106.433 30.5558 106.433 31.1343C106.433 31.7338 106.499 32.267 106.631 32.734C106.764 33.201 106.952 33.5948 107.196 33.9155C107.447 34.2361 107.746 34.4801 108.095 34.6474C108.45 34.8146 108.848 34.8983 109.287 34.8983C109.719 34.8983 110.071 34.846 110.343 34.7415C110.615 34.6369 110.841 34.5219 111.022 34.3964C111.204 34.271 111.357 34.156 111.483 34.0514C111.615 33.9468 111.754 33.8946 111.901 33.8946C112.082 33.8946 112.221 33.9643 112.319 34.1037L112.957 34.9297C112.699 35.2433 112.413 35.5082 112.099 35.7243C111.786 35.9403 111.455 36.1181 111.106 36.2575C110.758 36.3899 110.395 36.484 110.019 36.5398C109.642 36.6025 109.262 36.6339 108.879 36.6339C108.217 36.6339 107.597 36.5119 107.018 36.2679C106.447 36.017 105.945 35.658 105.512 35.191C105.087 34.7171 104.749 34.142 104.498 33.4659C104.254 32.7828 104.132 32.0056 104.132 31.1343C104.132 30.3467 104.244 29.6183 104.467 28.9492C104.69 28.2731 105.014 27.691 105.439 27.2031C105.871 26.7152 106.405 26.3353 107.039 26.0635C107.673 25.7847 108.405 25.6453 109.235 25.6453C110.008 25.6453 110.688 25.7707 111.273 26.0217C111.866 26.2726 112.392 26.6281 112.852 27.0881L112.256 27.9036ZM117.013 27.0777C117.452 26.6455 117.933 26.3005 118.456 26.0426C118.978 25.7777 119.588 25.6453 120.285 25.6453C120.871 25.6453 121.383 25.7429 121.822 25.938C122.268 26.1332 122.641 26.4085 122.941 26.764C123.248 27.1195 123.478 27.5481 123.631 28.05C123.784 28.5449 123.861 29.0921 123.861 29.6915V36.4771H121.624V29.6915C121.624 28.9736 121.456 28.4159 121.122 28.0186C120.794 27.6213 120.292 27.4227 119.616 27.4227C119.114 27.4227 118.647 27.5377 118.215 27.7677C117.79 27.9977 117.389 28.3114 117.013 28.7087V36.4771H114.765V21.0031H117.013V27.0777ZM129.157 36.4771H126.7V21.4213H129.157V36.4771ZM134.244 27.224C134.474 26.987 134.711 26.7744 134.955 26.5863C135.206 26.3911 135.471 26.2238 135.75 26.0844C136.029 25.945 136.325 25.8369 136.639 25.7603C136.952 25.6836 137.294 25.6453 137.663 25.6453C138.249 25.6453 138.761 25.7429 139.2 25.938C139.646 26.1332 140.019 26.4085 140.319 26.764C140.626 27.1195 140.856 27.5481 141.009 28.05C141.162 28.5449 141.239 29.0921 141.239 29.6915V36.4771H139.002V29.6915C139.002 28.9736 138.834 28.4159 138.5 28.0186C138.172 27.6213 137.67 27.4227 136.994 27.4227C136.492 27.4227 136.025 27.5377 135.593 27.7677C135.168 27.9977 134.767 28.3114 134.391 28.7087V36.4771H132.143V25.8126H133.502C133.809 25.8126 134.004 25.9554 134.088 26.2412L134.244 27.224ZM150.232 27.7468C150.176 27.8444 150.113 27.9141 150.043 27.9559C149.974 27.9977 149.887 28.0186 149.782 28.0186C149.664 28.0186 149.535 27.9838 149.395 27.9141C149.256 27.8374 149.092 27.7538 148.904 27.6632C148.716 27.5725 148.493 27.4924 148.235 27.4227C147.984 27.346 147.688 27.3077 147.346 27.3077C147.067 27.3077 146.813 27.3425 146.583 27.4122C146.36 27.475 146.168 27.5691 146.008 27.6945C145.854 27.813 145.736 27.9559 145.652 28.1232C145.569 28.2835 145.527 28.4578 145.527 28.646C145.527 28.8969 145.603 29.106 145.757 29.2733C145.91 29.4406 146.112 29.5869 146.363 29.7124C146.614 29.8309 146.9 29.9389 147.221 30.0365C147.541 30.1341 147.869 30.2387 148.203 30.3502C148.538 30.4617 148.865 30.5907 149.186 30.737C149.507 30.8834 149.793 31.0646 150.043 31.2807C150.294 31.4898 150.497 31.7477 150.65 32.0544C150.803 32.3541 150.88 32.7201 150.88 33.1522C150.88 33.6541 150.789 34.1176 150.608 34.5428C150.427 34.968 150.162 35.3374 149.813 35.6511C149.465 35.9647 149.029 36.2087 148.507 36.383C147.991 36.5572 147.398 36.6443 146.729 36.6443C146.36 36.6443 146.001 36.6095 145.652 36.5398C145.311 36.4771 144.983 36.3899 144.669 36.2784C144.363 36.1599 144.073 36.0205 143.802 35.8602C143.537 35.6999 143.3 35.5256 143.091 35.3374L143.613 34.4801C143.676 34.3755 143.753 34.2954 143.843 34.2396C143.941 34.1769 144.059 34.1455 144.199 34.1455C144.345 34.1455 144.488 34.1943 144.628 34.2919C144.774 34.3825 144.941 34.4836 145.129 34.5951C145.325 34.7066 145.558 34.8112 145.83 34.9087C146.102 34.9994 146.44 35.0447 146.844 35.0447C147.179 35.0447 147.468 35.0063 147.712 34.9297C147.956 34.846 148.158 34.7345 148.318 34.5951C148.479 34.4557 148.597 34.2988 148.674 34.1246C148.75 33.9434 148.789 33.7517 148.789 33.5495C148.789 33.2777 148.712 33.0547 148.559 32.8804C148.405 32.7061 148.2 32.5563 147.942 32.4308C147.691 32.3054 147.402 32.1938 147.074 32.0962C146.754 31.9987 146.426 31.8941 146.091 31.7826C145.757 31.6711 145.426 31.5421 145.098 31.3957C144.777 31.2494 144.488 31.0646 144.23 30.8416C143.979 30.6116 143.777 30.3363 143.624 30.0156C143.471 29.688 143.394 29.2907 143.394 28.8237C143.394 28.3985 143.477 27.9942 143.645 27.6109C143.819 27.2275 144.07 26.8895 144.398 26.5967C144.732 26.304 145.14 26.0739 145.621 25.9067C146.109 25.7324 146.67 25.6453 147.304 25.6453C148.022 25.6453 148.674 25.7603 149.259 25.9903C149.845 26.2203 150.336 26.534 150.734 26.9313L150.232 27.7468ZM155.334 25.8126V36.4771H153.086V25.8126H155.334ZM155.711 22.5923C155.711 22.7944 155.669 22.9861 155.585 23.1673C155.509 23.3486 155.401 23.5089 155.261 23.6483C155.122 23.7807 154.958 23.8888 154.77 23.9724C154.589 24.0491 154.393 24.0874 154.184 24.0874C153.982 24.0874 153.79 24.0491 153.609 23.9724C153.435 23.8888 153.282 23.7807 153.149 23.6483C153.017 23.5089 152.909 23.3486 152.825 23.1673C152.748 22.9861 152.71 22.7944 152.71 22.5923C152.71 22.3832 152.748 22.188 152.825 22.0068C152.909 21.8256 153.017 21.6687 153.149 21.5363C153.282 21.3969 153.435 21.2889 153.609 21.2122C153.79 21.1285 153.982 21.0867 154.184 21.0867C154.393 21.0867 154.589 21.1285 154.77 21.2122C154.958 21.2889 155.122 21.3969 155.261 21.5363C155.401 21.6687 155.509 21.8256 155.585 22.0068C155.669 22.188 155.711 22.3832 155.711 22.5923ZM161.965 31.0507C162.662 31.0507 163.184 30.873 163.533 30.5175C163.881 30.162 164.056 29.6985 164.056 29.1269C164.056 28.5414 163.881 28.0779 163.533 27.7363C163.184 27.3948 162.662 27.224 161.965 27.224C161.275 27.224 160.752 27.3948 160.396 27.7363C160.048 28.0779 159.873 28.5414 159.873 29.1269C159.873 29.4057 159.919 29.6636 160.009 29.9006C160.1 30.1376 160.232 30.3432 160.407 30.5175C160.581 30.6848 160.797 30.8172 161.055 30.9148C161.32 31.0054 161.623 31.0507 161.965 31.0507ZM165.091 36.9998C165.091 36.7628 165.021 36.5746 164.882 36.4352C164.749 36.2889 164.568 36.1773 164.338 36.1007C164.108 36.017 163.84 35.9578 163.533 35.9229C163.226 35.8811 162.899 35.8532 162.55 35.8393C162.209 35.8184 161.857 35.8009 161.494 35.787C161.139 35.7661 160.794 35.7312 160.459 35.6824C160.124 35.8567 159.849 36.0658 159.633 36.3098C159.424 36.5537 159.319 36.836 159.319 37.1567C159.319 37.3658 159.372 37.5609 159.476 37.7422C159.588 37.9234 159.755 38.0802 159.978 38.2126C160.208 38.3451 160.497 38.4496 160.846 38.5263C161.201 38.603 161.627 38.6413 162.121 38.6413C163.111 38.6413 163.854 38.488 164.348 38.1813C164.843 37.8746 165.091 37.4808 165.091 36.9998ZM167.349 26.1994V27.0358C167.349 27.3146 167.182 27.4854 166.847 27.5481L165.781 27.7259C165.962 28.1302 166.053 28.5797 166.053 29.0746C166.053 29.5974 165.948 30.0714 165.739 30.4966C165.537 30.9218 165.255 31.2842 164.892 31.5839C164.53 31.8836 164.097 32.1137 163.596 32.274C163.094 32.4343 162.55 32.5145 161.965 32.5145C161.742 32.5145 161.522 32.504 161.306 32.4831C161.097 32.4552 160.891 32.4204 160.689 32.3785C160.487 32.497 160.337 32.6225 160.239 32.7549C160.142 32.8874 160.093 33.0233 160.093 33.1627C160.093 33.3927 160.194 33.5635 160.396 33.675C160.598 33.7865 160.863 33.8667 161.191 33.9155C161.525 33.9643 161.905 33.9956 162.331 34.0096C162.756 34.0235 163.188 34.0479 163.627 34.0828C164.066 34.1176 164.498 34.1769 164.923 34.2605C165.349 34.3372 165.725 34.4696 166.053 34.6578C166.387 34.839 166.656 35.0865 166.858 35.4001C167.06 35.7138 167.161 36.1216 167.161 36.6234C167.161 37.0835 167.046 37.533 166.816 37.9722C166.586 38.4113 166.251 38.8016 165.812 39.1432C165.38 39.4847 164.85 39.7566 164.223 39.9587C163.596 40.1678 162.881 40.2724 162.08 40.2724C161.285 40.2724 160.591 40.1957 159.999 40.0423C159.413 39.889 158.922 39.6799 158.525 39.415C158.134 39.1571 157.842 38.8574 157.646 38.5159C157.458 38.1743 157.364 37.8188 157.364 37.4494C157.364 36.9475 157.521 36.5189 157.835 36.1634C158.155 35.8079 158.587 35.5291 159.131 35.327C158.838 35.1876 158.601 34.9959 158.42 34.7519C158.246 34.508 158.159 34.1873 158.159 33.79C158.159 33.4764 158.274 33.1488 158.504 32.8072C158.734 32.4657 159.079 32.1764 159.539 31.9394C159.009 31.6467 158.591 31.2598 158.284 30.7789C157.978 30.2909 157.824 29.7229 157.824 29.0746C157.824 28.5449 157.925 28.0674 158.127 27.6422C158.337 27.2171 158.626 26.8546 158.995 26.5549C159.365 26.2552 159.8 26.0251 160.302 25.8648C160.811 25.7045 161.365 25.6244 161.965 25.6244C162.885 25.6244 163.686 25.816 164.369 26.1994H167.349ZM171.373 27.0777C171.812 26.6455 172.293 26.3005 172.815 26.0426C173.338 25.7777 173.948 25.6453 174.645 25.6453C175.231 25.6453 175.743 25.7429 176.182 25.938C176.628 26.1332 177.001 26.4085 177.301 26.764C177.608 27.1195 177.838 27.5481 177.991 28.05C178.144 28.5449 178.221 29.0921 178.221 29.6915V36.4771H175.983V29.6915C175.983 28.9736 175.816 28.4159 175.482 28.0186C175.154 27.6213 174.652 27.4227 173.976 27.4227C173.474 27.4227 173.007 27.5377 172.575 27.7677C172.15 27.9977 171.749 28.3114 171.373 28.7087V36.4771H169.125V21.0031H171.373V27.0777ZM184.122 36.6443C183.237 36.6443 182.554 36.3969 182.073 35.902C181.599 35.4001 181.362 34.6961 181.362 33.79V27.5795H180.191C180.065 27.5795 179.957 27.5412 179.867 27.4645C179.776 27.3809 179.731 27.2589 179.731 27.0986V26.1889L181.456 25.938L181.947 22.8537C181.982 22.7352 182.042 22.6411 182.125 22.5714C182.209 22.4947 182.32 22.4564 182.46 22.4564H183.61V25.9589H186.569V27.5795H183.61V33.6332C183.61 34.0165 183.704 34.3093 183.892 34.5114C184.08 34.7136 184.331 34.8146 184.645 34.8146C184.819 34.8146 184.969 34.7937 185.094 34.7519C185.22 34.7031 185.328 34.6543 185.419 34.6055C185.509 34.5498 185.586 34.501 185.649 34.4592C185.718 34.4104 185.785 34.386 185.847 34.386C185.973 34.386 186.074 34.4557 186.15 34.5951L186.82 35.6929C186.471 35.9996 186.06 36.2366 185.586 36.4039C185.112 36.5642 184.624 36.6443 184.122 36.6443ZM194.708 27.7468C194.652 27.8444 194.589 27.9141 194.52 27.9559C194.45 27.9977 194.363 28.0186 194.258 28.0186C194.14 28.0186 194.011 27.9838 193.871 27.9141C193.732 27.8374 193.568 27.7538 193.38 27.6632C193.192 27.5725 192.969 27.4924 192.711 27.4227C192.46 27.346 192.164 27.3077 191.822 27.3077C191.543 27.3077 191.289 27.3425 191.059 27.4122C190.836 27.475 190.644 27.5691 190.484 27.6945C190.331 27.813 190.212 27.9559 190.128 28.1232C190.045 28.2835 190.003 28.4578 190.003 28.646C190.003 28.8969 190.08 29.106 190.233 29.2733C190.386 29.4406 190.588 29.5869 190.839 29.7124C191.09 29.8309 191.376 29.9389 191.697 30.0365C192.017 30.1341 192.345 30.2387 192.68 30.3502C193.014 30.4617 193.342 30.5907 193.662 30.737C193.983 30.8834 194.269 31.0646 194.52 31.2807C194.771 31.4898 194.973 31.7477 195.126 32.0544C195.279 32.3541 195.356 32.7201 195.356 33.1522C195.356 33.6541 195.266 34.1176 195.084 34.5428C194.903 34.968 194.638 35.3374 194.29 35.6511C193.941 35.9647 193.506 36.2087 192.983 36.383C192.467 36.5572 191.874 36.6443 191.205 36.6443C190.836 36.6443 190.477 36.6095 190.128 36.5398C189.787 36.4771 189.459 36.3899 189.146 36.2784C188.839 36.1599 188.55 36.0205 188.278 35.8602C188.013 35.6999 187.776 35.5256 187.567 35.3374L188.09 34.4801C188.152 34.3755 188.229 34.2954 188.32 34.2396C188.417 34.1769 188.536 34.1455 188.675 34.1455C188.822 34.1455 188.964 34.1943 189.104 34.2919C189.25 34.3825 189.417 34.4836 189.606 34.5951C189.801 34.7066 190.034 34.8112 190.306 34.9087C190.578 34.9994 190.916 35.0447 191.32 35.0447C191.655 35.0447 191.944 35.0063 192.188 34.9297C192.432 34.846 192.634 34.7345 192.795 34.5951C192.955 34.4557 193.073 34.2988 193.15 34.1246C193.227 33.9434 193.265 33.7517 193.265 33.5495C193.265 33.2777 193.188 33.0547 193.035 32.8804C192.882 32.7061 192.676 32.5563 192.418 32.4308C192.167 32.3054 191.878 32.1938 191.55 32.0962C191.23 31.9987 190.902 31.8941 190.568 31.7826C190.233 31.6711 189.902 31.5421 189.574 31.3957C189.254 31.2494 188.964 31.0646 188.707 30.8416C188.456 30.6116 188.253 30.3363 188.1 30.0156C187.947 29.688 187.87 29.2907 187.87 28.8237C187.87 28.3985 187.954 27.9942 188.121 27.6109C188.295 27.2275 188.546 26.8895 188.874 26.5967C189.208 26.304 189.616 26.0739 190.097 25.9067C190.585 25.7324 191.146 25.6453 191.78 25.6453C192.498 25.6453 193.15 25.7603 193.736 25.9903C194.321 26.2203 194.812 26.534 195.21 26.9313L194.708 27.7468Z" fill="#2E2F32"/>
</svg>
