<svg width="212" height="204" viewBox="0 0 212 204" fill="none" xmlns="http://www.w3.org/2000/svg">
<rect width="211.999" height="203.381" rx="11.4905" fill="#207384"/>
<path d="M40.967 70.5585C42.4229 67.9479 43.1502 66.6426 44.2384 66.6426C45.3265 66.6426 46.0539 67.9479 47.5097 70.5585L47.8866 71.2342C48.3002 71.9765 48.5071 72.3476 48.8288 72.5923C49.1505 72.8371 49.5527 72.9279 50.357 73.1094L51.0878 73.2749C53.9145 73.9149 55.3267 74.2343 55.6633 75.3156C55.9989 76.3957 55.036 77.5229 53.109 79.7762L52.6103 80.3587C52.0634 80.9988 51.7887 81.3194 51.6658 81.7146C51.5429 82.111 51.5842 82.5385 51.6669 83.3922L51.7428 84.1701C52.0335 87.1772 52.1794 88.6801 51.2993 89.3477C50.4191 90.0165 49.0954 89.4063 46.4503 88.1884L45.7643 87.8735C45.0128 87.5265 44.6371 87.3541 44.2384 87.3541C43.8396 87.3541 43.4639 87.5265 42.7113 87.8735L42.0276 88.1884C39.3813 89.4063 38.0576 90.0153 37.1786 89.3489C36.2973 88.6801 36.4432 87.1772 36.7339 84.1701L36.8098 83.3934C36.8925 82.5385 36.9339 82.111 36.8098 81.7158C36.688 81.3194 36.4133 80.9988 35.8664 80.3599L35.3677 79.7762C33.4408 77.5241 32.4779 76.3968 32.8134 75.3156C33.1501 74.2343 34.5634 73.9137 37.39 73.2749L38.1208 73.1094C38.924 72.9279 39.325 72.8371 39.6479 72.5923C39.9696 72.3476 40.1765 71.9765 40.5901 71.2342L40.967 70.5585Z" fill="#E2F8F9"/>
<path d="M71.9913 70.5585C73.4471 67.9479 74.1744 66.6426 75.2626 66.6426C76.3507 66.6426 77.0781 67.9479 78.5339 70.5585L78.9108 71.2342C79.3245 71.9765 79.5313 72.3476 79.853 72.5923C80.1748 72.8371 80.5769 72.9279 81.3813 73.1094L82.1121 73.2749C84.9387 73.9149 86.3509 74.2343 86.6876 75.3156C87.0231 76.3957 86.0602 77.5229 84.1332 79.7762L83.6345 80.3587C83.0876 80.9988 82.813 81.3194 82.69 81.7146C82.5671 82.111 82.6084 82.5385 82.6912 83.3922L82.767 84.1701C83.0577 87.1772 83.2037 88.6801 82.3235 89.3477C81.4433 90.0165 80.1196 89.4063 77.4745 88.1884L76.7885 87.8735C76.037 87.5265 75.6613 87.3541 75.2626 87.3541C74.8639 87.3541 74.4881 87.5265 73.7355 87.8735L73.0518 88.1884C70.4056 89.4063 69.0819 90.0153 68.2028 89.3489C67.3215 88.6801 67.4675 87.1772 67.7582 84.1701L67.834 83.3934C67.9167 82.5385 67.9581 82.111 67.834 81.7158C67.7122 81.3194 67.4376 80.9988 66.8906 80.3599L66.3919 79.7762C64.465 77.5241 63.5021 76.3968 63.8376 75.3156C64.1743 74.2343 65.5876 73.9137 68.4143 73.2749L69.1451 73.1094C69.9482 72.9279 70.3493 72.8371 70.6721 72.5923C70.9939 72.3476 71.2007 71.9765 71.6144 71.2342L71.9913 70.5585Z" fill="#E2F8F9"/>
<path d="M103.016 70.5585C104.471 67.9479 105.199 66.6426 106.287 66.6426C107.375 66.6426 108.102 67.9479 109.558 70.5585L109.935 71.2342C110.349 71.9765 110.556 72.3476 110.877 72.5923C111.199 72.8371 111.601 72.9279 112.406 73.1094L113.136 73.2749C115.963 73.9149 117.375 74.2343 117.712 75.3156C118.047 76.3957 117.085 77.5229 115.158 79.7762L114.659 80.3587C114.112 80.9988 113.837 81.3194 113.714 81.7146C113.591 82.111 113.633 82.5385 113.716 83.3922L113.791 84.1701C114.082 87.1772 114.228 88.6801 113.348 89.3477C112.468 90.0165 111.144 89.4063 108.499 88.1884L107.813 87.8735C107.061 87.5265 106.686 87.3541 106.287 87.3541C105.888 87.3541 105.512 87.5265 104.76 87.8735L104.076 88.1884C101.43 89.4063 100.106 90.0153 99.2272 89.3489C98.3459 88.6801 98.4918 87.1772 98.7825 84.1701L98.8584 83.3934C98.9411 82.5385 98.9825 82.111 98.8584 81.7158C98.7366 81.3194 98.4619 80.9988 97.915 80.3599L97.4163 79.7762C95.4893 77.5241 94.5264 76.3968 94.862 75.3156C95.1986 74.2343 96.612 73.9137 99.4386 73.2749L100.169 73.1094C100.973 72.9279 101.374 72.8371 101.697 72.5923C102.018 72.3476 102.225 71.9765 102.639 71.2342L103.016 70.5585Z" fill="#E2F8F9"/>
<path d="M134.04 70.5585C135.496 67.9479 136.223 66.6426 137.311 66.6426C138.399 66.6426 139.127 67.9479 140.582 70.5585L140.959 71.2342C141.373 71.9765 141.58 72.3476 141.902 72.5923C142.223 72.8371 142.625 72.9279 143.43 73.1094L144.161 73.2749C146.987 73.9149 148.399 74.2343 148.736 75.3156C149.072 76.3957 148.109 77.5229 146.182 79.7762L145.683 80.3587C145.136 80.9988 144.861 81.3194 144.739 81.7146C144.616 82.111 144.657 82.5385 144.74 83.3922L144.816 84.1701C145.106 87.1772 145.252 88.6801 144.372 89.3477C143.492 90.0165 142.168 89.4063 139.523 88.1884L138.837 87.8735C138.086 87.5265 137.71 87.3541 137.311 87.3541C136.912 87.3541 136.537 87.5265 135.784 87.8735L135.1 88.1884C132.454 89.4063 131.13 90.0153 130.251 89.3489C129.37 88.6801 129.516 87.1772 129.807 84.1701L129.883 83.3934C129.965 82.5385 130.007 82.111 129.883 81.7158C129.761 81.3194 129.486 80.9988 128.939 80.3599L128.44 79.7762C126.514 77.5241 125.551 76.3968 125.886 75.3156C126.223 74.2343 127.636 73.9137 130.463 73.2749L131.194 73.1094C131.997 72.9279 132.398 72.8371 132.721 72.5923C133.042 72.3476 133.249 71.9765 133.663 71.2342L134.04 70.5585Z" fill="#E2F8F9"/>
<path d="M165.064 70.5585C166.52 67.9479 167.247 66.6426 168.335 66.6426C169.424 66.6426 170.151 67.9479 171.607 70.5585L171.984 71.2342C172.397 71.9765 172.604 72.3476 172.926 72.5923C173.248 72.8371 173.65 72.9279 174.454 73.1094L175.185 73.2749C178.012 73.9149 179.424 74.2343 179.76 75.3156C180.096 76.3957 179.133 77.5229 177.206 79.7762L176.707 80.3587C176.161 80.9988 175.886 81.3194 175.763 81.7146C175.64 82.111 175.681 82.5385 175.764 83.3922L175.84 84.1701C176.131 87.1772 176.277 88.6801 175.396 89.3477C174.516 90.0165 173.193 89.4063 170.547 88.1884L169.861 87.8735C169.11 87.5265 168.734 87.3541 168.335 87.3541C167.937 87.3541 167.561 87.5265 166.808 87.8735L166.125 88.1884C163.478 89.4063 162.155 90.0153 161.276 89.3489C160.394 88.6801 160.54 87.1772 160.831 84.1701L160.907 83.3934C160.99 82.5385 161.031 82.111 160.907 81.7158C160.785 81.3194 160.51 80.9988 159.964 80.3599L159.465 79.7762C157.538 77.5241 156.575 76.3968 156.911 75.3156C157.247 74.2343 158.661 73.9137 161.487 73.2749L162.218 73.1094C163.021 72.9279 163.422 72.8371 163.745 72.5923C164.067 72.3476 164.274 71.9765 164.687 71.2342L165.064 70.5585Z" fill="#E2F8F9"/>
<path d="M60.9495 115.396C61.2384 115.336 61.5153 115.294 61.7801 115.27C62.0449 115.24 62.3007 115.225 62.5475 115.225C63.2337 115.225 63.8386 115.327 64.3622 115.532C64.8858 115.736 65.3252 116.019 65.6803 116.381C66.0354 116.742 66.3033 117.166 66.4838 117.653C66.6644 118.135 66.7547 118.656 66.7547 119.215C66.7547 119.908 66.6313 120.54 66.3845 121.111C66.1438 121.683 65.8067 122.174 65.3734 122.583C64.94 122.986 64.4254 123.299 63.8295 123.522C63.2397 123.745 62.5957 123.856 61.8975 123.856C61.4882 123.856 61.1 123.814 60.7328 123.729C60.3657 123.645 60.0196 123.534 59.6946 123.395C59.3756 123.251 59.0777 123.088 58.8008 122.908C58.53 122.721 58.2862 122.526 58.0695 122.321L58.7557 121.373C58.9001 121.168 59.0897 121.066 59.3244 121.066C59.4749 121.066 59.6284 121.114 59.7849 121.211C59.9414 121.307 60.1189 121.412 60.3175 121.527C60.5222 121.641 60.7599 121.746 61.0308 121.843C61.3076 121.939 61.6387 121.987 62.0239 121.987C62.4332 121.987 62.7943 121.921 63.1073 121.788C63.4202 121.656 63.6791 121.472 63.8837 121.238C64.0944 120.997 64.2508 120.714 64.3532 120.389C64.4615 120.058 64.5157 119.7 64.5157 119.315C64.5157 118.604 64.308 118.051 63.8927 117.653C63.4834 117.25 62.8755 117.049 62.069 117.049C61.4491 117.049 60.8141 117.163 60.1641 117.392L58.7737 116.994L59.8571 110.657H66.3033V111.605C66.3033 111.924 66.204 112.182 66.0053 112.381C65.8067 112.58 65.4697 112.679 64.9942 112.679H61.41L60.9495 115.396ZM80.5542 113.031C80.4819 113.157 80.4037 113.251 80.3194 113.311C80.2412 113.365 80.1419 113.392 80.0215 113.392C79.8951 113.392 79.7567 113.347 79.6062 113.257C79.4618 113.16 79.2872 113.055 79.0826 112.941C78.8779 112.826 78.6372 112.724 78.3603 112.634C78.0895 112.537 77.7675 112.489 77.3943 112.489C77.0572 112.489 76.7623 112.531 76.5095 112.616C76.2567 112.694 76.0431 112.805 75.8685 112.95C75.7 113.094 75.5736 113.269 75.4893 113.473C75.4051 113.672 75.3629 113.892 75.3629 114.132C75.3629 114.439 75.4472 114.695 75.6157 114.9C75.7903 115.105 76.019 115.279 76.3019 115.424C76.5848 115.568 76.9068 115.697 77.2679 115.812C77.629 115.926 77.9992 116.049 78.3784 116.182C78.7576 116.308 79.1277 116.459 79.4888 116.633C79.85 116.802 80.172 117.019 80.4549 117.283C80.7377 117.542 80.9635 117.861 81.132 118.24C81.3065 118.62 81.3938 119.08 81.3938 119.622C81.3938 120.211 81.2915 120.765 81.0868 121.283C80.8882 121.794 80.5933 122.243 80.2021 122.628C79.8169 123.007 79.3444 123.308 78.7846 123.531C78.2249 123.748 77.5839 123.856 76.8616 123.856C76.4463 123.856 76.0371 123.814 75.6338 123.729C75.2305 123.651 74.8423 123.537 74.4691 123.386C74.102 123.236 73.7559 123.055 73.4309 122.845C73.1059 122.634 72.817 122.399 72.5642 122.141L73.2774 120.976C73.3376 120.892 73.4159 120.822 73.5122 120.768C73.6085 120.708 73.7108 120.678 73.8191 120.678C73.9696 120.678 74.1321 120.741 74.3066 120.868C74.4812 120.988 74.6888 121.123 74.9296 121.274C75.1703 121.424 75.4502 121.563 75.7692 121.689C76.0942 121.809 76.4824 121.87 76.9339 121.87C77.626 121.87 78.1617 121.707 78.5409 121.382C78.9201 121.051 79.1097 120.579 79.1097 119.965C79.1097 119.622 79.0224 119.342 78.8478 119.125C78.6793 118.908 78.4536 118.728 78.1707 118.583C77.8878 118.433 77.5658 118.307 77.2047 118.204C76.8436 118.102 76.4764 117.991 76.1033 117.87C75.7301 117.75 75.3629 117.605 75.0018 117.437C74.6407 117.268 74.3187 117.049 74.0358 116.778C73.7529 116.507 73.5242 116.17 73.3496 115.767C73.1811 115.357 73.0969 114.855 73.0969 114.259C73.0969 113.783 73.1902 113.32 73.3767 112.869C73.5693 112.417 73.8462 112.017 74.2073 111.668C74.5685 111.319 75.0139 111.039 75.5435 110.828C76.0732 110.617 76.6811 110.512 77.3672 110.512C78.1376 110.512 78.8478 110.633 79.4979 110.873C80.1479 111.114 80.7016 111.451 81.1591 111.884L80.5542 113.031ZM85.8423 123.856C85.0358 123.856 84.4159 123.63 83.9825 123.179C83.5552 122.721 83.3415 122.092 83.3415 121.292V116.119H82.3935C82.2732 116.119 82.1708 116.08 82.0866 116.001C82.0023 115.923 81.9602 115.806 81.9602 115.649V114.764L83.4498 114.521L83.9193 111.993C83.9494 111.872 84.0066 111.779 84.0908 111.713C84.1751 111.647 84.2834 111.614 84.4159 111.614H85.5715V114.53H88.0452V116.119H85.5715V121.138C85.5715 121.427 85.6407 121.653 85.7791 121.815C85.9236 121.978 86.1192 122.059 86.366 122.059C86.5044 122.059 86.6187 122.044 86.709 122.014C86.8053 121.978 86.8866 121.942 86.9528 121.906C87.025 121.87 87.0882 121.837 87.1424 121.806C87.1965 121.77 87.2507 121.752 87.3049 121.752C87.3711 121.752 87.4253 121.77 87.4674 121.806C87.5095 121.837 87.5547 121.885 87.6028 121.951L88.2709 123.034C87.9459 123.305 87.5727 123.51 87.1514 123.648C86.7301 123.787 86.2937 123.856 85.8423 123.856ZM94.3662 119.757C93.7222 119.787 93.1805 119.844 92.7411 119.929C92.3018 120.007 91.9497 120.109 91.6848 120.236C91.42 120.362 91.2304 120.509 91.1161 120.678C91.0017 120.846 90.9445 121.03 90.9445 121.229C90.9445 121.62 91.0589 121.9 91.2876 122.068C91.5223 122.237 91.8263 122.321 92.1995 122.321C92.6569 122.321 93.0511 122.24 93.3822 122.077C93.7192 121.909 94.0472 121.656 94.3662 121.319V119.757ZM89.2563 115.74C90.3216 114.764 91.6036 114.277 93.1023 114.277C93.644 114.277 94.1285 114.367 94.5558 114.548C94.9832 114.722 95.3443 114.969 95.6392 115.288C95.9341 115.601 96.1568 115.977 96.3073 116.417C96.4638 116.856 96.542 117.337 96.542 117.861V123.711H95.5309C95.3202 123.711 95.1577 123.681 95.0433 123.621C94.929 123.555 94.8387 123.426 94.7725 123.233L94.5739 122.565C94.3391 122.775 94.1104 122.962 93.8877 123.125C93.665 123.281 93.4333 123.413 93.1926 123.522C92.9518 123.63 92.693 123.711 92.4161 123.766C92.1453 123.826 91.8443 123.856 91.5133 123.856C91.1221 123.856 90.761 123.805 90.4299 123.702C90.0989 123.594 89.813 123.435 89.5722 123.224C89.3315 123.013 89.1449 122.751 89.0125 122.438C88.8801 122.125 88.8139 121.761 88.8139 121.346C88.8139 121.111 88.853 120.88 88.9312 120.651C89.0095 120.416 89.1359 120.193 89.3104 119.983C89.491 119.772 89.7227 119.573 90.0056 119.387C90.2885 119.2 90.6346 119.038 91.0438 118.899C91.4591 118.761 91.9406 118.65 92.4884 118.565C93.0361 118.475 93.662 118.421 94.3662 118.403V117.861C94.3662 117.241 94.2338 116.784 93.969 116.489C93.7042 116.188 93.322 116.037 92.8224 116.037C92.4613 116.037 92.1603 116.08 91.9196 116.164C91.6848 116.248 91.4772 116.344 91.2966 116.453C91.1161 116.555 90.9505 116.648 90.8001 116.733C90.6556 116.817 90.4931 116.859 90.3126 116.859C90.1561 116.859 90.0237 116.82 89.9153 116.742C89.807 116.657 89.7197 116.561 89.6535 116.453L89.2563 115.74ZM100.746 116.055C101.035 115.502 101.378 115.068 101.775 114.755C102.172 114.436 102.642 114.277 103.183 114.277C103.611 114.277 103.954 114.37 104.213 114.557L104.068 116.227C104.038 116.335 103.993 116.414 103.933 116.462C103.879 116.504 103.803 116.525 103.707 116.525C103.617 116.525 103.481 116.51 103.301 116.48C103.126 116.45 102.955 116.435 102.786 116.435C102.539 116.435 102.32 116.471 102.127 116.543C101.935 116.615 101.76 116.721 101.603 116.859C101.453 116.991 101.318 117.154 101.197 117.347C101.083 117.539 100.975 117.759 100.872 118.006V123.711H98.6422V114.448H99.9513C100.18 114.448 100.34 114.491 100.43 114.575C100.52 114.653 100.58 114.798 100.61 115.008L100.746 116.055ZM111.484 116.055C111.773 115.502 112.116 115.068 112.514 114.755C112.911 114.436 113.38 114.277 113.922 114.277C114.349 114.277 114.692 114.37 114.951 114.557L114.807 116.227C114.777 116.335 114.732 116.414 114.671 116.462C114.617 116.504 114.542 116.525 114.446 116.525C114.355 116.525 114.22 116.51 114.039 116.48C113.865 116.45 113.693 116.435 113.525 116.435C113.278 116.435 113.058 116.471 112.866 116.543C112.673 116.615 112.499 116.721 112.342 116.859C112.192 116.991 112.056 117.154 111.936 117.347C111.821 117.539 111.713 117.759 111.611 118.006V123.711H109.381V114.448H110.69C110.919 114.448 111.078 114.491 111.168 114.575C111.259 114.653 111.319 114.798 111.349 115.008L111.484 116.055ZM120.887 119.757C120.243 119.787 119.701 119.844 119.262 119.929C118.822 120.007 118.47 120.109 118.205 120.236C117.94 120.362 117.751 120.509 117.636 120.678C117.522 120.846 117.465 121.03 117.465 121.229C117.465 121.62 117.579 121.9 117.808 122.068C118.043 122.237 118.347 122.321 118.72 122.321C119.177 122.321 119.572 122.24 119.903 122.077C120.24 121.909 120.568 121.656 120.887 121.319V119.757ZM115.777 115.74C116.842 114.764 118.124 114.277 119.623 114.277C120.164 114.277 120.649 114.367 121.076 114.548C121.504 114.722 121.865 114.969 122.16 115.288C122.455 115.601 122.677 115.977 122.828 116.417C122.984 116.856 123.062 117.337 123.062 117.861V123.711H122.051C121.841 123.711 121.678 123.681 121.564 123.621C121.449 123.555 121.359 123.426 121.293 123.233L121.094 122.565C120.86 122.775 120.631 122.962 120.408 123.125C120.185 123.281 119.954 123.413 119.713 123.522C119.472 123.63 119.213 123.711 118.937 123.766C118.666 123.826 118.365 123.856 118.034 123.856C117.642 123.856 117.281 123.805 116.95 123.702C116.619 123.594 116.333 123.435 116.093 123.224C115.852 123.013 115.665 122.751 115.533 122.438C115.4 122.125 115.334 121.761 115.334 121.346C115.334 121.111 115.373 120.88 115.452 120.651C115.53 120.416 115.656 120.193 115.831 119.983C116.011 119.772 116.243 119.573 116.526 119.387C116.809 119.2 117.155 119.038 117.564 118.899C117.98 118.761 118.461 118.65 119.009 118.565C119.556 118.475 120.182 118.421 120.887 118.403V117.861C120.887 117.241 120.754 116.784 120.489 116.489C120.225 116.188 119.842 116.037 119.343 116.037C118.982 116.037 118.681 116.08 118.44 116.164C118.205 116.248 117.998 116.344 117.817 116.453C117.636 116.555 117.471 116.648 117.32 116.733C117.176 116.817 117.014 116.859 116.833 116.859C116.676 116.859 116.544 116.82 116.436 116.742C116.327 116.657 116.24 116.561 116.174 116.453L115.777 115.74ZM134.383 123.711H132.153V116.119H127.856V121.138C127.856 121.427 127.925 121.653 128.064 121.815C128.208 121.978 128.404 122.059 128.65 122.059C128.789 122.059 128.903 122.044 128.994 122.014C129.09 121.978 129.171 121.942 129.237 121.906C129.31 121.87 129.373 121.837 129.427 121.806C129.481 121.77 129.535 121.752 129.589 121.752C129.656 121.752 129.71 121.77 129.752 121.806C129.794 121.837 129.839 121.885 129.887 121.951L130.555 123.034C130.23 123.305 129.857 123.51 129.436 123.648C129.015 123.787 128.578 123.856 128.127 123.856C127.32 123.856 126.7 123.63 126.267 123.179C125.84 122.721 125.626 122.092 125.626 121.292V116.119H124.678C124.558 116.119 124.455 116.08 124.371 116.001C124.287 115.923 124.245 115.806 124.245 115.649V114.764L125.734 114.512L126.204 111.993C126.234 111.872 126.291 111.779 126.375 111.713C126.46 111.647 126.568 111.614 126.7 111.614H127.856V114.53H134.383V123.711ZM134.772 111.713C134.772 111.906 134.732 112.089 134.654 112.264C134.576 112.432 134.471 112.58 134.338 112.706C134.212 112.832 134.058 112.935 133.878 113.013C133.703 113.085 133.517 113.121 133.318 113.121C133.125 113.121 132.945 113.085 132.776 113.013C132.608 112.935 132.46 112.832 132.334 112.706C132.208 112.58 132.105 112.432 132.027 112.264C131.955 112.089 131.919 111.906 131.919 111.713C131.919 111.514 131.955 111.331 132.027 111.162C132.105 110.988 132.208 110.837 132.334 110.711C132.46 110.578 132.608 110.476 132.776 110.404C132.945 110.326 133.125 110.286 133.318 110.286C133.517 110.286 133.703 110.326 133.878 110.404C134.058 110.476 134.212 110.578 134.338 110.711C134.471 110.837 134.576 110.988 134.654 111.162C134.732 111.331 134.772 111.514 134.772 111.713ZM138.745 115.586C138.932 115.399 139.127 115.228 139.332 115.071C139.543 114.909 139.762 114.773 139.991 114.665C140.226 114.551 140.475 114.464 140.74 114.403C141.005 114.337 141.294 114.304 141.607 114.304C142.113 114.304 142.561 114.391 142.952 114.566C143.343 114.734 143.668 114.975 143.927 115.288C144.192 115.595 144.391 115.965 144.523 116.399C144.662 116.826 144.731 117.298 144.731 117.816V123.711H142.501V117.816C142.501 117.25 142.371 116.814 142.113 116.507C141.854 116.194 141.46 116.037 140.93 116.037C140.545 116.037 140.184 116.125 139.846 116.299C139.509 116.474 139.19 116.712 138.889 117.012V123.711H136.66V114.448H138.023C138.312 114.448 138.501 114.584 138.592 114.855L138.745 115.586ZM150.237 118.854C150.514 118.854 150.755 118.818 150.959 118.746C151.164 118.668 151.333 118.562 151.465 118.43C151.603 118.298 151.706 118.138 151.772 117.951C151.844 117.765 151.88 117.56 151.88 117.337C151.88 116.88 151.742 116.519 151.465 116.254C151.194 115.983 150.785 115.848 150.237 115.848C149.689 115.848 149.277 115.983 149 116.254C148.729 116.519 148.594 116.88 148.594 117.337C148.594 117.554 148.627 117.756 148.693 117.942C148.766 118.129 148.868 118.291 149 118.43C149.139 118.562 149.31 118.668 149.515 118.746C149.726 118.818 149.966 118.854 150.237 118.854ZM152.756 124.127C152.756 123.946 152.702 123.799 152.593 123.684C152.485 123.57 152.338 123.483 152.151 123.423C151.965 123.356 151.745 123.308 151.492 123.278C151.245 123.248 150.98 123.227 150.698 123.215C150.421 123.197 150.132 123.182 149.831 123.17C149.536 123.158 149.247 123.134 148.964 123.098C148.717 123.236 148.516 123.398 148.359 123.585C148.209 123.772 148.134 123.988 148.134 124.235C148.134 124.398 148.173 124.548 148.251 124.686C148.335 124.831 148.465 124.954 148.639 125.057C148.82 125.159 149.051 125.237 149.334 125.291C149.617 125.352 149.963 125.382 150.373 125.382C150.788 125.382 151.146 125.349 151.447 125.282C151.748 125.222 151.995 125.135 152.187 125.021C152.386 124.912 152.53 124.78 152.621 124.623C152.711 124.473 152.756 124.307 152.756 124.127ZM154.977 114.764V115.595C154.977 115.86 154.817 116.022 154.498 116.083L153.668 116.236C153.794 116.555 153.857 116.904 153.857 117.283C153.857 117.741 153.764 118.156 153.578 118.529C153.397 118.896 153.144 119.209 152.819 119.468C152.494 119.727 152.109 119.929 151.664 120.073C151.224 120.211 150.749 120.281 150.237 120.281C150.057 120.281 149.882 120.272 149.713 120.254C149.545 120.236 149.379 120.211 149.217 120.181C148.928 120.356 148.784 120.552 148.784 120.768C148.784 120.955 148.868 121.093 149.036 121.184C149.211 121.268 149.44 121.328 149.723 121.364C150.005 121.4 150.327 121.424 150.689 121.436C151.05 121.442 151.42 121.46 151.799 121.49C152.178 121.521 152.548 121.575 152.909 121.653C153.271 121.725 153.593 121.843 153.875 122.005C154.158 122.168 154.384 122.39 154.553 122.673C154.727 122.95 154.814 123.308 154.814 123.748C154.814 124.157 154.712 124.554 154.507 124.939C154.309 125.324 154.017 125.668 153.632 125.968C153.253 126.269 152.783 126.51 152.223 126.691C151.67 126.877 151.038 126.971 150.327 126.971C149.629 126.971 149.021 126.901 148.504 126.763C147.986 126.631 147.556 126.45 147.213 126.221C146.87 125.999 146.614 125.74 146.445 125.445C146.277 125.15 146.192 124.843 146.192 124.524C146.192 124.091 146.322 123.729 146.581 123.441C146.846 123.146 147.207 122.911 147.664 122.736C147.417 122.61 147.222 122.441 147.077 122.231C146.933 122.02 146.861 121.743 146.861 121.4C146.861 121.262 146.885 121.12 146.933 120.976C146.987 120.825 147.062 120.678 147.158 120.533C147.261 120.389 147.387 120.254 147.538 120.127C147.688 119.995 147.866 119.877 148.07 119.775C147.601 119.522 147.231 119.185 146.96 118.764C146.695 118.343 146.563 117.849 146.563 117.283C146.563 116.826 146.653 116.414 146.833 116.046C147.02 115.673 147.276 115.357 147.601 115.098C147.932 114.834 148.32 114.632 148.766 114.494C149.217 114.355 149.707 114.286 150.237 114.286C150.634 114.286 151.008 114.328 151.357 114.412C151.706 114.491 152.025 114.608 152.314 114.764H154.977Z" fill="white"/>
</svg>
