<svg width="212" height="204" viewBox="0 0 212 204" fill="none" xmlns="http://www.w3.org/2000/svg">
<rect y="0.618652" width="211.999" height="203.381" rx="11.4905" fill="#207384"/>
<path d="M100.436 56.4789C100.436 57.8857 99.8768 59.2348 98.8821 60.2295C97.8874 61.2242 96.5382 61.783 95.1315 61.783C93.7248 61.783 92.3756 61.2242 91.3809 60.2295C90.3862 59.2348 89.8274 57.8857 89.8274 56.4789C89.8274 55.0722 90.3862 53.7231 91.3809 52.7283C92.3756 51.7336 93.7248 51.1748 95.1315 51.1748C96.5382 51.1748 97.8874 51.7336 98.8821 52.7283C99.8768 53.7231 100.436 55.0722 100.436 56.4789ZM107.861 61.783C108.987 61.783 110.066 61.336 110.862 60.5402C111.658 59.7444 112.105 58.6651 112.105 57.5397C112.105 56.4143 111.658 55.335 110.862 54.5393C110.066 53.7435 108.987 53.2964 107.861 53.2964C106.736 53.2964 105.657 53.7435 104.861 54.5393C104.065 55.335 103.618 56.4143 103.618 57.5397C103.618 58.6651 104.065 59.7444 104.861 60.5402C105.657 61.336 106.736 61.783 107.861 61.783ZM105.74 67.2866V67.0871C105.741 65.9392 105.369 64.8221 104.679 63.9047H111.623C113.057 63.9047 114.222 65.0673 114.222 66.5037C114.222 66.5037 114.222 71.3304 107.857 71.3304C106.588 71.3304 105.572 71.1395 104.76 70.8318C105.266 69.9032 105.588 68.8851 105.708 67.834C105.721 67.7024 105.729 67.59 105.733 67.4966L105.74 67.2866ZM103.618 67.0871C103.618 66.2431 103.283 65.4336 102.686 64.8368C102.089 64.24 101.28 63.9047 100.436 63.9047H89.8274C88.9834 63.9047 88.1739 64.24 87.5771 64.8368C86.9802 65.4336 86.6449 66.2431 86.6449 67.0871V67.2463C86.6449 67.2463 86.6449 73.4521 95.1315 73.4521C103.219 73.4521 103.599 67.817 103.618 67.2866V67.0871Z" fill="#E2F8F9"/>
<path d="M88.2611 110.559V112.897H78.1494V110.559H81.8528V99.904C81.8528 99.4827 81.8655 99.0488 81.8907 98.6022L79.2617 100.801C79.1101 100.919 78.9584 100.995 78.8067 101.029C78.6635 101.054 78.5244 101.054 78.3896 101.029C78.2632 101.004 78.1494 100.962 78.0483 100.903C77.9472 100.835 77.8714 100.764 77.8208 100.688L76.8349 99.3353L82.409 94.5954H84.9748V110.559H88.2611ZM103.873 103.759C103.873 105.352 103.7 106.738 103.355 107.917C103.018 109.089 102.546 110.058 101.939 110.825C101.341 111.591 100.629 112.164 99.8029 112.544C98.9856 112.914 98.1008 113.1 97.1486 113.1C96.1964 113.1 95.3117 112.914 94.4943 112.544C93.6854 112.164 92.9818 111.591 92.3835 110.825C91.7852 110.058 91.3176 109.089 90.9805 107.917C90.6435 106.738 90.4749 105.352 90.4749 103.759C90.4749 102.158 90.6435 100.772 90.9805 99.6007C91.3176 98.4294 91.7852 97.4604 92.3835 96.6936C92.9818 95.9268 93.6854 95.358 94.4943 94.9873C95.3117 94.6081 96.1964 94.4185 97.1486 94.4185C98.1008 94.4185 98.9856 94.6081 99.8029 94.9873C100.629 95.358 101.341 95.9268 101.939 96.6936C102.546 97.4604 103.018 98.4294 103.355 99.6007C103.7 100.772 103.873 102.158 103.873 103.759ZM100.65 103.759C100.65 102.436 100.553 101.341 100.359 100.473C100.165 99.6049 99.904 98.9139 99.5754 98.3999C99.2552 97.8859 98.8844 97.5278 98.4631 97.3256C98.0418 97.1149 97.6036 97.0096 97.1486 97.0096C96.702 97.0096 96.2681 97.1149 95.8467 97.3256C95.4339 97.5278 95.0673 97.8859 94.7471 98.3999C94.4269 98.9139 94.1699 99.6049 93.9761 100.473C93.7907 101.341 93.698 102.436 93.698 103.759C93.698 105.082 93.7907 106.177 93.9761 107.045C94.1699 107.913 94.4269 108.604 94.7471 109.118C95.0673 109.632 95.4339 109.995 95.8467 110.205C96.2681 110.407 96.702 110.509 97.1486 110.509C97.6036 110.509 98.0418 110.407 98.4631 110.205C98.8844 109.995 99.2552 109.632 99.5754 109.118C99.904 108.604 100.165 107.913 100.359 107.045C100.553 106.177 100.65 105.082 100.65 103.759ZM106.049 112.897V99.9293H107.957C108.362 99.9293 108.627 100.119 108.754 100.498L108.956 101.459C109.183 101.206 109.419 100.974 109.664 100.764C109.916 100.553 110.182 100.372 110.46 100.22C110.746 100.068 111.05 99.9504 111.37 99.8661C111.699 99.7734 112.057 99.7271 112.444 99.7271C113.262 99.7271 113.932 99.9504 114.454 100.397C114.985 100.835 115.381 101.421 115.642 102.154C115.844 101.724 116.097 101.358 116.401 101.054C116.704 100.742 117.037 100.49 117.399 100.296C117.761 100.102 118.145 99.9588 118.549 99.8661C118.962 99.7734 119.375 99.7271 119.788 99.7271C120.504 99.7271 121.14 99.8366 121.697 100.056C122.253 100.275 122.72 100.595 123.1 101.016C123.479 101.438 123.765 101.952 123.959 102.558C124.161 103.165 124.262 103.86 124.262 104.644V112.897H121.14V104.644C121.14 103.818 120.959 103.199 120.597 102.786C120.235 102.365 119.704 102.154 119.004 102.154C118.684 102.154 118.385 102.209 118.107 102.318C117.837 102.428 117.597 102.588 117.386 102.798C117.184 103.001 117.024 103.258 116.906 103.569C116.788 103.881 116.729 104.239 116.729 104.644V112.897H113.595V104.644C113.595 103.776 113.418 103.144 113.064 102.748C112.718 102.352 112.208 102.154 111.534 102.154C111.079 102.154 110.654 102.268 110.258 102.495C109.87 102.714 109.508 103.018 109.171 103.405V112.897H106.049ZM55.2038 133.759C55.2038 135.099 54.9805 136.329 54.5339 137.45C54.0873 138.571 53.4595 139.535 52.6506 140.344C51.8417 141.153 50.8684 141.781 49.7309 142.228C48.5933 142.674 47.3294 142.897 45.939 142.897H38.9747V124.621H45.939C47.3294 124.621 48.5933 124.848 49.7309 125.303C50.8684 125.75 51.8417 126.378 52.6506 127.187C53.4595 127.987 54.0873 128.948 54.5339 130.068C54.9805 131.189 55.2038 132.419 55.2038 133.759ZM51.7153 133.759C51.7153 132.756 51.5805 131.859 51.3108 131.067C51.0496 130.266 50.6662 129.592 50.1606 129.045C49.6635 128.488 49.0568 128.063 48.3405 127.768C47.6327 127.473 46.8322 127.326 45.939 127.326H42.3873V140.193H45.939C46.8322 140.193 47.6327 140.045 48.3405 139.75C49.0568 139.455 49.6635 139.034 50.1606 138.486C50.6662 137.93 51.0496 137.256 51.3108 136.464C51.5805 135.663 51.7153 134.762 51.7153 133.759ZM63.2781 129.727C64.2387 129.727 65.1108 129.883 65.8945 130.195C66.6865 130.507 67.3606 130.949 67.9168 131.522C68.4813 132.095 68.9153 132.794 69.2186 133.62C69.522 134.446 69.6737 135.369 69.6737 136.388C69.6737 137.416 69.522 138.343 69.2186 139.169C68.9153 139.995 68.4813 140.698 67.9168 141.28C67.3606 141.861 66.6865 142.308 65.8945 142.619C65.1108 142.931 64.2387 143.087 63.2781 143.087C62.309 143.087 61.4285 142.931 60.6364 142.619C59.8443 142.308 59.166 141.861 58.6015 141.28C58.0453 140.698 57.6114 139.995 57.2996 139.169C56.9962 138.343 56.8446 137.416 56.8446 136.388C56.8446 135.369 56.9962 134.446 57.2996 133.62C57.6114 132.794 58.0453 132.095 58.6015 131.522C59.166 130.949 59.8443 130.507 60.6364 130.195C61.4285 129.883 62.309 129.727 63.2781 129.727ZM63.2781 140.686C64.3566 140.686 65.1529 140.323 65.6669 139.599C66.1894 138.874 66.4506 137.812 66.4506 136.413C66.4506 135.015 66.1894 133.949 65.6669 133.216C65.1529 132.483 64.3566 132.116 63.2781 132.116C62.1826 132.116 61.3695 132.487 60.8386 133.228C60.3162 133.961 60.055 135.023 60.055 136.413C60.055 137.804 60.3162 138.865 60.8386 139.599C61.3695 140.323 62.1826 140.686 63.2781 140.686ZM90.3501 129.929L86.2297 142.897H83.727C83.4405 142.897 83.2425 142.712 83.133 142.341L80.8073 134.846C80.7315 134.593 80.6598 134.345 80.5924 134.1C80.5334 133.848 80.4829 133.595 80.4408 133.342C80.3902 133.595 80.3312 133.852 80.2638 134.113C80.2048 134.366 80.1374 134.619 80.0616 134.871L77.698 142.341C77.5969 142.712 77.3736 142.897 77.0281 142.897H74.6266L70.5187 129.929H73.0087C73.2362 129.929 73.43 129.984 73.5901 130.094C73.7502 130.203 73.8556 130.342 73.9061 130.511L75.7641 137.437C75.8568 137.816 75.9369 138.187 76.0043 138.549C76.0801 138.912 76.1433 139.274 76.1939 139.636C76.2866 139.274 76.3835 138.912 76.4846 138.549C76.5941 138.187 76.7079 137.816 76.8259 137.437L78.9746 130.485C79.0251 130.317 79.122 130.178 79.2653 130.068C79.417 129.959 79.5981 129.904 79.8088 129.904H81.1865C81.4056 129.904 81.591 129.959 81.7426 130.068C81.9027 130.178 82.0081 130.317 82.0586 130.485L84.1441 137.437C84.2537 137.816 84.3548 138.191 84.4475 138.562C84.5486 138.924 84.6455 139.287 84.7382 139.649C84.8477 138.933 85.0036 138.196 85.2059 137.437L87.1144 130.511C87.1734 130.342 87.2787 130.203 87.4304 130.094C87.5821 129.984 87.7632 129.929 87.9739 129.929H90.3501ZM95.0453 131.522C95.3065 131.261 95.5804 131.021 95.8669 130.801C96.1618 130.574 96.4694 130.384 96.7896 130.233C97.1182 130.073 97.4679 129.95 97.8386 129.866C98.2094 129.773 98.6139 129.727 99.052 129.727C99.7599 129.727 100.388 129.849 100.935 130.094C101.483 130.33 101.938 130.667 102.3 131.105C102.671 131.535 102.949 132.053 103.135 132.659C103.328 133.258 103.425 133.919 103.425 134.644V142.897H100.303V134.644C100.303 133.852 100.122 133.241 99.7599 132.811C99.3975 132.373 98.8456 132.154 98.1041 132.154C97.5648 132.154 97.0592 132.276 96.5873 132.52C96.1155 132.765 95.6689 133.098 95.2475 133.519V142.897H92.1256V129.929H94.0342C94.4386 129.929 94.7041 130.119 94.8304 130.498L95.0453 131.522ZM109.554 124.115V142.897H106.432V124.115H109.554ZM118.403 129.727C119.364 129.727 120.236 129.883 121.02 130.195C121.812 130.507 122.486 130.949 123.042 131.522C123.606 132.095 124.04 132.794 124.344 133.62C124.647 134.446 124.799 135.369 124.799 136.388C124.799 137.416 124.647 138.343 124.344 139.169C124.04 139.995 123.606 140.698 123.042 141.28C122.486 141.861 121.812 142.308 121.02 142.619C120.236 142.931 119.364 143.087 118.403 143.087C117.434 143.087 116.554 142.931 115.761 142.619C114.969 142.308 114.291 141.861 113.727 141.28C113.17 140.698 112.736 139.995 112.425 139.169C112.121 138.343 111.97 137.416 111.97 136.388C111.97 135.369 112.121 134.446 112.425 133.62C112.736 132.794 113.17 132.095 113.727 131.522C114.291 130.949 114.969 130.507 115.761 130.195C116.554 129.883 117.434 129.727 118.403 129.727ZM118.403 140.686C119.482 140.686 120.278 140.323 120.792 139.599C121.314 138.874 121.576 137.812 121.576 136.413C121.576 135.015 121.314 133.949 120.792 133.216C120.278 132.483 119.482 132.116 118.403 132.116C117.308 132.116 116.495 132.487 115.964 133.228C115.441 133.961 115.18 135.023 115.18 136.413C115.18 137.804 115.441 138.865 115.964 139.599C116.495 140.323 117.308 140.686 118.403 140.686ZM134.031 137.361C133.129 137.403 132.371 137.484 131.756 137.602C131.141 137.711 130.648 137.854 130.277 138.031C129.906 138.208 129.641 138.415 129.481 138.651C129.321 138.887 129.241 139.144 129.241 139.422C129.241 139.969 129.401 140.361 129.721 140.597C130.05 140.833 130.475 140.951 130.998 140.951C131.638 140.951 132.19 140.837 132.653 140.61C133.125 140.374 133.585 140.02 134.031 139.548V137.361ZM126.877 131.737C128.369 130.372 130.163 129.689 132.262 129.689C133.02 129.689 133.698 129.816 134.297 130.068C134.895 130.313 135.4 130.658 135.813 131.105C136.226 131.543 136.538 132.07 136.749 132.685C136.968 133.3 137.077 133.974 137.077 134.707V142.897H135.662C135.367 142.897 135.139 142.855 134.979 142.771C134.819 142.678 134.693 142.497 134.6 142.228L134.322 141.292C133.993 141.587 133.673 141.848 133.361 142.076C133.049 142.295 132.725 142.48 132.388 142.632C132.051 142.784 131.689 142.897 131.301 142.973C130.922 143.058 130.5 143.1 130.037 143.1C129.489 143.1 128.984 143.028 128.52 142.885C128.057 142.733 127.657 142.51 127.32 142.215C126.982 141.92 126.721 141.553 126.536 141.115C126.35 140.677 126.258 140.167 126.258 139.586C126.258 139.257 126.313 138.933 126.422 138.613C126.532 138.284 126.709 137.972 126.953 137.677C127.206 137.382 127.53 137.104 127.926 136.843C128.322 136.582 128.807 136.354 129.38 136.161C129.961 135.967 130.635 135.811 131.402 135.693C132.169 135.567 133.045 135.491 134.031 135.465V134.707C134.031 133.839 133.846 133.199 133.475 132.786C133.104 132.365 132.569 132.154 131.87 132.154C131.364 132.154 130.943 132.213 130.606 132.331C130.277 132.449 129.986 132.584 129.734 132.735C129.481 132.879 129.249 133.009 129.039 133.127C128.836 133.245 128.609 133.304 128.356 133.304C128.137 133.304 127.952 133.249 127.8 133.14C127.648 133.022 127.526 132.887 127.433 132.735L126.877 131.737ZM148.157 133.241C147.803 132.811 147.416 132.508 146.995 132.331C146.582 132.154 146.135 132.065 145.655 132.065C145.183 132.065 144.757 132.154 144.378 132.331C143.999 132.508 143.675 132.777 143.405 133.14C143.135 133.494 142.929 133.949 142.786 134.505C142.642 135.053 142.571 135.701 142.571 136.451C142.571 137.21 142.63 137.854 142.748 138.385C142.874 138.908 143.051 139.337 143.278 139.674C143.506 140.003 143.784 140.243 144.113 140.395C144.441 140.538 144.808 140.61 145.212 140.61C145.861 140.61 146.413 140.475 146.868 140.205C147.323 139.936 147.753 139.552 148.157 139.055V133.241ZM151.279 124.115V142.897H149.371C148.958 142.897 148.697 142.708 148.587 142.329L148.322 141.077C147.799 141.676 147.197 142.16 146.514 142.531C145.84 142.902 145.052 143.087 144.151 143.087C143.443 143.087 142.794 142.94 142.204 142.645C141.614 142.35 141.104 141.924 140.675 141.368C140.253 140.804 139.925 140.108 139.689 139.283C139.461 138.457 139.348 137.513 139.348 136.451C139.348 135.491 139.478 134.598 139.739 133.772C140.001 132.946 140.376 132.23 140.864 131.623C141.353 131.016 141.939 130.544 142.621 130.207C143.304 129.862 144.071 129.689 144.922 129.689C145.646 129.689 146.266 129.803 146.78 130.03C147.294 130.258 147.753 130.566 148.157 130.953V124.115H151.279ZM162.273 132.457C162.188 132.592 162.1 132.689 162.007 132.748C161.915 132.798 161.797 132.824 161.653 132.824C161.502 132.824 161.337 132.782 161.16 132.697C160.992 132.613 160.794 132.52 160.566 132.419C160.339 132.31 160.078 132.213 159.783 132.129C159.496 132.044 159.155 132.002 158.759 132.002C158.144 132.002 157.659 132.133 157.305 132.394C156.96 132.655 156.787 132.997 156.787 133.418C156.787 133.696 156.876 133.932 157.053 134.126C157.238 134.311 157.478 134.475 157.773 134.619C158.076 134.762 158.418 134.892 158.797 135.01C159.176 135.12 159.559 135.242 159.947 135.377C160.343 135.512 160.731 135.668 161.11 135.845C161.489 136.013 161.826 136.232 162.121 136.502C162.424 136.763 162.665 137.079 162.841 137.45C163.027 137.821 163.12 138.267 163.12 138.79C163.12 139.413 163.006 139.99 162.778 140.521C162.559 141.044 162.231 141.499 161.792 141.886C161.354 142.265 160.811 142.565 160.162 142.784C159.522 142.994 158.78 143.1 157.937 143.1C157.491 143.1 157.053 143.058 156.623 142.973C156.202 142.897 155.793 142.788 155.397 142.645C155.009 142.501 154.647 142.333 154.31 142.139C153.981 141.945 153.69 141.735 153.438 141.507L154.158 140.319C154.251 140.176 154.36 140.066 154.487 139.99C154.613 139.915 154.773 139.877 154.967 139.877C155.161 139.877 155.342 139.931 155.511 140.041C155.688 140.15 155.89 140.268 156.117 140.395C156.345 140.521 156.61 140.639 156.914 140.749C157.225 140.858 157.617 140.913 158.089 140.913C158.46 140.913 158.776 140.871 159.037 140.787C159.307 140.694 159.526 140.576 159.694 140.433C159.871 140.29 159.998 140.125 160.073 139.94C160.158 139.746 160.2 139.548 160.2 139.346C160.2 139.042 160.107 138.794 159.922 138.6C159.745 138.406 159.505 138.238 159.201 138.094C158.906 137.951 158.565 137.825 158.178 137.715C157.798 137.597 157.407 137.471 157.002 137.336C156.606 137.201 156.214 137.045 155.827 136.868C155.447 136.683 155.106 136.451 154.803 136.173C154.508 135.895 154.268 135.554 154.082 135.149C153.905 134.745 153.817 134.256 153.817 133.683C153.817 133.152 153.922 132.647 154.133 132.167C154.344 131.686 154.651 131.269 155.056 130.915C155.468 130.553 155.978 130.266 156.585 130.056C157.2 129.837 157.908 129.727 158.708 129.727C159.602 129.727 160.415 129.875 161.148 130.169C161.881 130.464 162.492 130.852 162.981 131.332L162.273 132.457Z" fill="white"/>
</svg>
