<svg width="212" height="205" viewBox="0 0 212 205" fill="none" xmlns="http://www.w3.org/2000/svg">
<rect y="0.809082" width="211.999" height="203.381" rx="11.4905" fill="#207384"/>
<path d="M105.808 61.5053C111.35 61.5053 115.843 57.0127 115.843 51.4707C115.843 45.9287 111.35 41.436 105.808 41.436C100.266 41.436 95.7732 45.9287 95.7732 51.4707C95.7732 57.0127 100.266 61.5053 105.808 61.5053Z" stroke="#E2F8F9" stroke-width="1.72357" stroke-linecap="round" stroke-linejoin="round"/>
<path d="M105.808 55.9294C108.271 55.9294 110.267 53.9327 110.267 51.4696C110.267 49.0065 108.271 47.0098 105.808 47.0098C103.345 47.0098 101.348 49.0065 101.348 51.4696C101.348 53.9327 103.345 55.9294 105.808 55.9294Z" stroke="#E2F8F9" stroke-width="1.72357" stroke-linecap="round" stroke-linejoin="round"/>
<path d="M103.867 61.328L101.905 69.5787C101.866 69.7355 101.794 69.8822 101.694 70.0091C101.594 70.136 101.469 70.2401 101.325 70.3145C101.174 70.3802 101.011 70.4141 100.846 70.4141C100.681 70.4141 100.518 70.3802 100.366 70.3145L92.963 67.0812C92.8077 67.0077 92.6711 66.9001 92.5633 66.7663C92.4556 66.6325 92.3796 66.4761 92.341 66.3087C92.3023 66.1414 92.3021 65.9674 92.3403 65.7999C92.3786 65.6325 92.4542 65.4759 92.5616 65.3418L98.2925 58.1615M108.327 61.2165L110.334 69.5787C110.374 69.7381 110.449 69.8868 110.553 70.014C110.657 70.1412 110.788 70.2438 110.936 70.3145C111.083 70.381 111.243 70.4154 111.404 70.4154C111.566 70.4154 111.726 70.381 111.873 70.3145L119.231 67.0812C119.389 67.0086 119.528 66.9003 119.636 66.7648C119.744 66.6293 119.82 66.4704 119.856 66.3007C119.898 66.1347 119.9 65.9609 119.861 65.7941C119.822 65.6272 119.744 65.4721 119.633 65.3418L113.657 57.7378" stroke="#E2F8F9" stroke-width="1.72357" stroke-linecap="round" stroke-linejoin="round"/>
<path d="M89.8165 98.2198C90.2209 98.1356 90.6085 98.0766 90.9793 98.0429C91.3501 98.0008 91.7082 97.9797 92.0537 97.9797C93.0143 97.9797 93.8611 98.1229 94.5942 98.4094C95.3273 98.6959 95.9424 99.092 96.4396 99.5976C96.9367 100.103 97.3117 100.697 97.5645 101.38C97.8173 102.054 97.9437 102.783 97.9437 103.566C97.9437 104.535 97.7709 105.42 97.4255 106.221C97.0884 107.021 96.6165 107.708 96.0098 108.281C95.4031 108.845 94.6827 109.284 93.8485 109.595C93.0227 109.907 92.1211 110.063 91.1436 110.063C90.5706 110.063 90.0271 110.004 89.5131 109.886C88.9991 109.768 88.5146 109.612 88.0596 109.418C87.613 109.216 87.1959 108.989 86.8083 108.736C86.4291 108.475 86.0878 108.201 85.7845 107.914L86.7451 106.587C86.9473 106.301 87.2127 106.157 87.5414 106.157C87.752 106.157 87.9669 106.225 88.186 106.36C88.4051 106.495 88.6536 106.642 88.9317 106.802C89.2182 106.962 89.551 107.11 89.9302 107.244C90.3178 107.379 90.7813 107.447 91.3206 107.447C91.8936 107.447 92.3991 107.354 92.8373 107.169C93.2755 106.983 93.6378 106.726 93.9243 106.398C94.2192 106.061 94.4383 105.665 94.5816 105.209C94.7332 104.746 94.8091 104.245 94.8091 103.705C94.8091 102.711 94.5184 101.936 93.9369 101.38C93.364 100.815 92.5129 100.533 91.3838 100.533C90.5158 100.533 89.6269 100.693 88.7168 101.013L86.7703 100.457L88.2871 91.5841H97.3117V92.9113C97.3117 93.3578 97.1727 93.7202 96.8946 93.9982C96.6165 94.2763 96.1446 94.4154 95.479 94.4154H90.4611L89.8165 98.2198ZM113.378 100.722C113.378 102.315 113.206 103.701 112.86 104.881C112.523 106.052 112.051 107.021 111.445 107.788C110.846 108.555 110.134 109.128 109.309 109.507C108.491 109.878 107.606 110.063 106.654 110.063C105.702 110.063 104.817 109.878 104 109.507C103.191 109.128 102.487 108.555 101.889 107.788C101.291 107.021 100.823 106.052 100.486 104.881C100.149 103.701 99.9806 102.315 99.9806 100.722C99.9806 99.1215 100.149 97.7353 100.486 96.5641C100.823 95.3928 101.291 94.4238 101.889 93.657C102.487 92.8902 103.191 92.3214 104 91.9506C104.817 91.5715 105.702 91.3819 106.654 91.3819C107.606 91.3819 108.491 91.5715 109.309 91.9506C110.134 92.3214 110.846 92.8902 111.445 93.657C112.051 94.4238 112.523 95.3928 112.86 96.5641C113.206 97.7353 113.378 99.1215 113.378 100.722ZM110.155 100.722C110.155 99.3995 110.059 98.3041 109.865 97.4362C109.671 96.5683 109.41 95.8773 109.081 95.3633C108.761 94.8493 108.39 94.4912 107.969 94.289C107.547 94.0783 107.109 93.973 106.654 93.973C106.208 93.973 105.774 94.0783 105.352 94.289C104.94 94.4912 104.573 94.8493 104.253 95.3633C103.933 95.8773 103.676 96.5683 103.482 97.4362C103.296 98.3041 103.204 99.3995 103.204 100.722C103.204 102.045 103.296 103.141 103.482 104.009C103.676 104.877 103.933 105.568 104.253 106.082C104.573 106.596 104.94 106.958 105.352 107.169C105.774 107.371 106.208 107.472 106.654 107.472C107.109 107.472 107.547 107.371 107.969 107.169C108.39 106.958 108.761 106.596 109.081 106.082C109.41 105.568 109.671 104.877 109.865 104.009C110.059 103.141 110.155 102.045 110.155 100.722ZM118.676 91.0785V101.835H119.258C119.469 101.835 119.633 101.809 119.751 101.759C119.877 101.7 120.004 101.586 120.13 101.418L123.353 97.4362C123.488 97.2592 123.635 97.1244 123.795 97.0317C123.964 96.939 124.179 96.8927 124.44 96.8927H127.297L123.265 101.708C122.978 102.088 122.666 102.378 122.329 102.58C122.506 102.707 122.662 102.854 122.797 103.023C122.94 103.191 123.075 103.373 123.201 103.566L127.524 109.861H124.705C124.461 109.861 124.25 109.823 124.073 109.747C123.897 109.663 123.749 109.515 123.631 109.305L120.32 104.388C120.202 104.194 120.079 104.068 119.953 104.009C119.827 103.95 119.637 103.92 119.384 103.92H118.676V109.861H115.554V91.0785H118.676ZM71.8028 130.28C72.4432 130.28 72.9993 130.2 73.4712 130.04C73.9515 129.88 74.3433 129.661 74.6467 129.383C74.9585 129.096 75.1902 128.759 75.3419 128.372C75.4935 127.984 75.5694 127.558 75.5694 127.095C75.5694 126.168 75.2618 125.456 74.6467 124.959C74.04 124.462 73.1089 124.213 71.8533 124.213H69.6793V130.28H71.8028ZM80.5493 139.861H77.4779C76.8965 139.861 76.4752 139.633 76.214 139.178L72.3716 133.326C72.2283 133.107 72.0682 132.951 71.8913 132.859C71.7227 132.766 71.4699 132.72 71.1329 132.72H69.6793V139.861H66.2793V121.584H71.8533C73.092 121.584 74.1537 121.715 75.0385 121.976C75.9317 122.229 76.6606 122.587 77.2251 123.05C77.7981 123.514 78.2194 124.07 78.4891 124.719C78.7587 125.359 78.8936 126.067 78.8936 126.842C78.8936 127.457 78.8009 128.039 78.6155 128.586C78.4385 129.134 78.1773 129.631 77.8318 130.078C77.4948 130.524 77.0735 130.916 76.5679 131.253C76.0707 131.59 75.502 131.856 74.8616 132.05C75.0806 132.176 75.2829 132.328 75.4682 132.505C75.6536 132.673 75.8222 132.875 75.9738 133.111L80.5493 139.861ZM88.6833 134.325C87.7816 134.367 87.0233 134.447 86.4081 134.565C85.793 134.674 85.3001 134.818 84.9293 134.995C84.5586 135.172 84.2931 135.378 84.133 135.614C83.9729 135.85 83.8929 136.107 83.8929 136.385C83.8929 136.933 84.053 137.325 84.3732 137.56C84.7018 137.796 85.1273 137.914 85.6498 137.914C86.2902 137.914 86.8421 137.801 87.3055 137.573C87.7774 137.337 88.2367 136.983 88.6833 136.511V134.325ZM81.5293 128.7C83.0208 127.335 84.8156 126.653 86.9137 126.653C87.6721 126.653 88.3504 126.779 88.9487 127.032C89.547 127.276 90.0525 127.622 90.4654 128.068C90.8783 128.506 91.1901 129.033 91.4007 129.648C91.6198 130.263 91.7294 130.937 91.7294 131.67V139.861H90.3138C90.0188 139.861 89.7913 139.819 89.6312 139.734C89.4711 139.642 89.3447 139.461 89.252 139.191L88.974 138.256C88.6453 138.551 88.3251 138.812 88.0134 139.039C87.7016 139.258 87.3772 139.444 87.0401 139.595C86.7031 139.747 86.3407 139.861 85.9531 139.937C85.5739 140.021 85.1526 140.063 84.6892 140.063C84.1415 140.063 83.6359 139.991 83.1724 139.848C82.709 139.697 82.3087 139.473 81.9717 139.178C81.6346 138.883 81.3734 138.517 81.188 138.079C81.0026 137.64 80.91 137.131 80.91 136.549C80.91 136.221 80.9647 135.896 81.0743 135.576C81.1838 135.247 81.3608 134.936 81.6051 134.641C81.8579 134.346 82.1823 134.068 82.5784 133.807C82.9744 133.545 83.4589 133.318 84.0319 133.124C84.6133 132.93 85.2874 132.774 86.0542 132.656C86.821 132.53 87.6974 132.454 88.6833 132.429V131.67C88.6833 130.803 88.4979 130.162 88.1271 129.749C87.7564 129.328 87.2213 129.117 86.5219 129.117C86.0163 129.117 85.595 129.176 85.2579 129.294C84.9293 129.412 84.6386 129.547 84.3858 129.699C84.133 129.842 83.9013 129.973 83.6906 130.09C83.4884 130.208 83.2609 130.267 83.0081 130.267C82.789 130.267 82.6036 130.213 82.452 130.103C82.3003 129.985 82.1781 129.85 82.0854 129.699L81.5293 128.7ZM107.579 139.861H104.457V129.231H98.4404V136.259C98.4404 136.663 98.5373 136.979 98.7311 137.207C98.9333 137.434 99.2072 137.548 99.5526 137.548C99.7464 137.548 99.9065 137.527 100.033 137.485C100.168 137.434 100.282 137.383 100.374 137.333C100.475 137.282 100.564 137.236 100.64 137.194C100.715 137.143 100.791 137.118 100.867 137.118C100.96 137.118 101.036 137.143 101.095 137.194C101.154 137.236 101.217 137.303 101.284 137.396L102.22 138.913C101.765 139.292 101.242 139.579 100.652 139.772C100.062 139.966 99.4515 140.063 98.8195 140.063C97.6904 140.063 96.8225 139.747 96.2158 139.115C95.6175 138.475 95.3184 137.594 95.3184 136.473V129.231H93.9913C93.8227 129.231 93.6795 129.176 93.5615 129.067C93.4435 128.957 93.3846 128.793 93.3846 128.574V127.335L95.4701 126.981L96.1273 123.455C96.1695 123.286 96.2495 123.156 96.3675 123.063C96.4855 122.97 96.6371 122.924 96.8225 122.924H98.4404V127.006H107.579V139.861ZM108.122 123.063C108.122 123.333 108.067 123.59 107.958 123.834C107.848 124.07 107.701 124.276 107.516 124.453C107.339 124.63 107.124 124.773 106.871 124.883C106.627 124.984 106.365 125.035 106.087 125.035C105.818 125.035 105.565 124.984 105.329 124.883C105.093 124.773 104.887 124.63 104.71 124.453C104.533 124.276 104.389 124.07 104.28 123.834C104.179 123.59 104.128 123.333 104.128 123.063C104.128 122.785 104.179 122.528 104.28 122.292C104.389 122.048 104.533 121.837 104.71 121.66C104.887 121.475 105.093 121.331 105.329 121.23C105.565 121.121 105.818 121.066 106.087 121.066C106.365 121.066 106.627 121.121 106.871 121.23C107.124 121.331 107.339 121.475 107.516 121.66C107.701 121.837 107.848 122.048 107.958 122.292C108.067 122.528 108.122 122.785 108.122 123.063ZM113.685 128.485C113.946 128.224 114.22 127.984 114.507 127.765C114.801 127.537 115.109 127.348 115.429 127.196C115.758 127.036 116.108 126.914 116.478 126.83C116.849 126.737 117.254 126.69 117.692 126.69C118.4 126.69 119.027 126.813 119.575 127.057C120.123 127.293 120.578 127.63 120.94 128.068C121.311 128.498 121.589 129.016 121.774 129.623C121.968 130.221 122.065 130.883 122.065 131.607V139.861H118.943V131.607C118.943 130.815 118.762 130.204 118.4 129.775C118.037 129.336 117.485 129.117 116.744 129.117C116.204 129.117 115.699 129.239 115.227 129.484C114.755 129.728 114.309 130.061 113.887 130.482V139.861H110.765V126.893H112.674C113.078 126.893 113.344 127.082 113.47 127.461L113.685 128.485ZM129.774 133.061C130.162 133.061 130.499 133.01 130.785 132.909C131.072 132.8 131.308 132.652 131.493 132.467C131.687 132.281 131.83 132.058 131.923 131.797C132.024 131.536 132.074 131.249 132.074 130.937C132.074 130.297 131.881 129.791 131.493 129.421C131.114 129.041 130.541 128.852 129.774 128.852C129.007 128.852 128.43 129.041 128.042 129.421C127.663 129.791 127.474 130.297 127.474 130.937C127.474 131.241 127.52 131.523 127.613 131.784C127.714 132.045 127.857 132.273 128.042 132.467C128.236 132.652 128.476 132.8 128.763 132.909C129.058 133.01 129.395 133.061 129.774 133.061ZM133.3 140.442C133.3 140.189 133.225 139.983 133.073 139.823C132.921 139.663 132.715 139.541 132.453 139.456C132.192 139.364 131.885 139.296 131.531 139.254C131.185 139.212 130.815 139.183 130.419 139.166C130.031 139.14 129.626 139.119 129.205 139.102C128.792 139.086 128.388 139.052 127.992 139.001C127.646 139.195 127.364 139.423 127.145 139.684C126.934 139.945 126.829 140.248 126.829 140.594C126.829 140.821 126.884 141.032 126.993 141.226C127.111 141.428 127.292 141.601 127.537 141.744C127.79 141.887 128.114 141.997 128.51 142.073C128.906 142.157 129.391 142.199 129.964 142.199C130.545 142.199 131.046 142.153 131.468 142.06C131.889 141.976 132.234 141.854 132.504 141.694C132.782 141.542 132.984 141.357 133.111 141.137C133.237 140.927 133.3 140.695 133.3 140.442ZM136.41 127.335V128.498C136.41 128.869 136.186 129.096 135.74 129.18L134.577 129.395C134.754 129.842 134.842 130.331 134.842 130.862C134.842 131.502 134.712 132.083 134.451 132.606C134.198 133.12 133.844 133.558 133.389 133.92C132.934 134.283 132.395 134.565 131.771 134.767C131.156 134.961 130.49 135.058 129.774 135.058C129.521 135.058 129.277 135.045 129.041 135.02C128.805 134.995 128.573 134.961 128.346 134.919C127.941 135.163 127.739 135.437 127.739 135.74C127.739 136.002 127.857 136.195 128.093 136.322C128.337 136.44 128.657 136.524 129.053 136.575C129.45 136.625 129.9 136.659 130.406 136.676C130.911 136.684 131.43 136.709 131.961 136.752C132.491 136.794 133.01 136.869 133.515 136.979C134.021 137.08 134.472 137.244 134.868 137.472C135.264 137.699 135.58 138.011 135.816 138.407C136.06 138.795 136.182 139.296 136.182 139.911C136.182 140.484 136.039 141.041 135.752 141.58C135.474 142.119 135.066 142.599 134.526 143.021C133.996 143.442 133.338 143.779 132.555 144.032C131.779 144.293 130.895 144.424 129.9 144.424C128.923 144.424 128.072 144.327 127.347 144.133C126.622 143.948 126.02 143.695 125.54 143.375C125.059 143.063 124.701 142.701 124.465 142.288C124.229 141.875 124.111 141.445 124.111 140.998C124.111 140.392 124.293 139.886 124.655 139.482C125.026 139.069 125.531 138.74 126.172 138.496C125.826 138.319 125.552 138.083 125.35 137.788C125.148 137.493 125.047 137.105 125.047 136.625C125.047 136.431 125.08 136.233 125.148 136.031C125.224 135.82 125.329 135.614 125.464 135.412C125.607 135.209 125.784 135.02 125.995 134.843C126.205 134.658 126.454 134.493 126.74 134.35C126.083 133.996 125.565 133.524 125.186 132.934C124.815 132.345 124.63 131.654 124.63 130.862C124.63 130.221 124.756 129.644 125.009 129.13C125.27 128.607 125.628 128.165 126.083 127.803C126.547 127.432 127.09 127.15 127.714 126.956C128.346 126.762 129.032 126.665 129.774 126.665C130.33 126.665 130.852 126.724 131.341 126.842C131.83 126.952 132.277 127.116 132.681 127.335H136.41ZM146.302 129.421C146.218 129.555 146.129 129.652 146.036 129.711C145.944 129.762 145.826 129.787 145.683 129.787C145.531 129.787 145.367 129.745 145.19 129.661C145.021 129.576 144.823 129.484 144.596 129.383C144.368 129.273 144.107 129.176 143.812 129.092C143.525 129.008 143.184 128.966 142.788 128.966C142.173 128.966 141.688 129.096 141.335 129.357C140.989 129.619 140.816 129.96 140.816 130.381C140.816 130.659 140.905 130.895 141.082 131.089C141.267 131.274 141.507 131.439 141.802 131.582C142.106 131.725 142.447 131.856 142.826 131.974C143.205 132.083 143.589 132.206 143.976 132.34C144.372 132.475 144.76 132.631 145.139 132.808C145.518 132.977 145.855 133.196 146.15 133.465C146.454 133.726 146.694 134.042 146.871 134.413C147.056 134.784 147.149 135.231 147.149 135.753C147.149 136.377 147.035 136.954 146.807 137.485C146.588 138.007 146.26 138.462 145.822 138.85C145.383 139.229 144.84 139.528 144.191 139.747C143.551 139.958 142.809 140.063 141.967 140.063C141.52 140.063 141.082 140.021 140.652 139.937C140.231 139.861 139.822 139.751 139.426 139.608C139.038 139.465 138.676 139.296 138.339 139.102C138.01 138.909 137.72 138.698 137.467 138.47L138.187 137.282C138.28 137.139 138.39 137.03 138.516 136.954C138.642 136.878 138.802 136.84 138.996 136.84C139.19 136.84 139.371 136.895 139.54 137.004C139.717 137.114 139.919 137.232 140.146 137.358C140.374 137.485 140.639 137.603 140.943 137.712C141.254 137.822 141.646 137.876 142.118 137.876C142.489 137.876 142.805 137.834 143.066 137.75C143.336 137.657 143.555 137.539 143.723 137.396C143.9 137.253 144.027 137.089 144.103 136.903C144.187 136.709 144.229 136.511 144.229 136.309C144.229 136.006 144.136 135.757 143.951 135.563C143.774 135.37 143.534 135.201 143.23 135.058C142.936 134.915 142.594 134.788 142.207 134.679C141.827 134.561 141.436 134.434 141.031 134.299C140.635 134.165 140.243 134.009 139.856 133.832C139.477 133.646 139.135 133.415 138.832 133.137C138.537 132.859 138.297 132.517 138.111 132.113C137.935 131.708 137.846 131.22 137.846 130.647C137.846 130.116 137.951 129.61 138.162 129.13C138.373 128.65 138.68 128.232 139.085 127.879C139.498 127.516 140.007 127.23 140.614 127.019C141.229 126.8 141.937 126.69 142.738 126.69C143.631 126.69 144.444 126.838 145.177 127.133C145.91 127.428 146.521 127.815 147.01 128.296L146.302 129.421Z" fill="white"/>
<path d="M68.0728 154.152V159.457H66.7905V154.152H68.0728ZM68.2486 152.606C68.2486 152.716 68.2262 152.82 68.1814 152.916C68.1366 153.013 68.0763 153.097 68.0004 153.169C67.928 153.242 67.8419 153.3 67.7419 153.345C67.6419 153.387 67.5351 153.407 67.4213 153.407C67.311 153.407 67.2059 153.387 67.1059 153.345C67.0094 153.3 66.9249 153.242 66.8525 153.169C66.7801 153.097 66.7215 153.013 66.6767 152.916C66.6354 152.82 66.6147 152.716 66.6147 152.606C66.6147 152.492 66.6354 152.385 66.6767 152.285C66.7215 152.185 66.7801 152.099 66.8525 152.027C66.9249 151.954 67.0094 151.897 67.1059 151.856C67.2059 151.811 67.311 151.789 67.4213 151.789C67.5351 151.789 67.6419 151.811 67.7419 151.856C67.8419 151.897 67.928 151.954 68.0004 152.027C68.0763 152.099 68.1366 152.185 68.1814 152.285C68.2262 152.385 68.2486 152.492 68.2486 152.606ZM71.7224 154.069C72.1153 154.069 72.4721 154.133 72.7927 154.26C73.1167 154.388 73.3925 154.569 73.62 154.803C73.851 155.038 74.0285 155.324 74.1526 155.662C74.2767 156 74.3387 156.377 74.3387 156.794C74.3387 157.215 74.2767 157.594 74.1526 157.932C74.0285 158.269 73.851 158.557 73.62 158.795C73.3925 159.033 73.1167 159.216 72.7927 159.343C72.4721 159.471 72.1153 159.535 71.7224 159.535C71.3259 159.535 70.9657 159.471 70.6417 159.343C70.3177 159.216 70.0402 159.033 69.8092 158.795C69.5817 158.557 69.4042 158.269 69.2766 157.932C69.1525 157.594 69.0905 157.215 69.0905 156.794C69.0905 156.377 69.1525 156 69.2766 155.662C69.4042 155.324 69.5817 155.038 69.8092 154.803C70.0402 154.569 70.3177 154.388 70.6417 154.26C70.9657 154.133 71.3259 154.069 71.7224 154.069ZM71.7224 158.552C72.1636 158.552 72.4894 158.404 72.6996 158.107C72.9134 157.811 73.0202 157.377 73.0202 156.804C73.0202 156.232 72.9134 155.796 72.6996 155.496C72.4894 155.196 72.1636 155.046 71.7224 155.046C71.2742 155.046 70.9416 155.198 70.7244 155.501C70.5107 155.801 70.4038 156.236 70.4038 156.804C70.4038 157.373 70.5107 157.808 70.7244 158.107C70.9416 158.404 71.2742 158.552 71.7224 158.552ZM78.55 155.186C78.5155 155.241 78.4793 155.281 78.4414 155.305C78.4035 155.326 78.3552 155.336 78.2966 155.336C78.2346 155.336 78.1673 155.319 78.0949 155.284C78.026 155.25 77.945 155.212 77.8519 155.171C77.7588 155.126 77.652 155.086 77.5313 155.052C77.4141 155.017 77.2745 155 77.1125 155C76.8609 155 76.6627 155.053 76.5179 155.16C76.3765 155.267 76.3059 155.407 76.3059 155.579C76.3059 155.693 76.3421 155.789 76.4145 155.869C76.4903 155.944 76.5885 156.012 76.7092 156.07C76.8333 156.129 76.9729 156.182 77.128 156.231C77.2831 156.275 77.44 156.325 77.5986 156.38C77.7606 156.436 77.9191 156.499 78.0743 156.572C78.2294 156.641 78.3673 156.73 78.4879 156.841C78.612 156.948 78.7103 157.077 78.7826 157.228C78.8585 157.38 78.8964 157.563 78.8964 157.777C78.8964 158.032 78.8499 158.268 78.7568 158.485C78.6672 158.699 78.5327 158.885 78.3535 159.043C78.1742 159.198 77.9519 159.321 77.6865 159.41C77.4245 159.497 77.1211 159.54 76.7764 159.54C76.5937 159.54 76.4145 159.523 76.2387 159.488C76.0663 159.457 75.8991 159.412 75.7371 159.354C75.5785 159.295 75.4303 159.226 75.2924 159.147C75.158 159.068 75.0391 158.981 74.9356 158.888L75.2304 158.402C75.2683 158.344 75.3131 158.299 75.3648 158.268C75.4165 158.237 75.482 158.221 75.5613 158.221C75.6406 158.221 75.7147 158.244 75.7836 158.288C75.856 158.333 75.9388 158.382 76.0318 158.433C76.1249 158.485 76.2335 158.533 76.3576 158.578C76.4851 158.623 76.6454 158.645 76.8385 158.645C76.9901 158.645 77.1194 158.628 77.2263 158.594C77.3366 158.556 77.4262 158.507 77.4951 158.449C77.5675 158.39 77.6192 158.323 77.6503 158.247C77.6847 158.168 77.702 158.087 77.702 158.004C77.702 157.88 77.6641 157.778 77.5882 157.699C77.5158 157.62 77.4176 157.551 77.2935 157.492C77.1728 157.434 77.0332 157.382 76.8747 157.337C76.7195 157.289 76.5592 157.237 76.3938 157.182C76.2318 157.127 76.0715 157.063 75.9129 156.991C75.7578 156.915 75.6182 156.82 75.4941 156.706C75.3734 156.592 75.2752 156.453 75.1993 156.287C75.127 156.122 75.0908 155.922 75.0908 155.688C75.0908 155.47 75.1339 155.264 75.22 155.067C75.3062 154.871 75.432 154.7 75.5975 154.555C75.7664 154.407 75.975 154.29 76.2231 154.204C76.4748 154.114 76.7643 154.069 77.0918 154.069C77.4572 154.069 77.7899 154.129 78.0898 154.25C78.3897 154.371 78.6396 154.529 78.8395 154.726L78.55 155.186ZM84.2131 155.962C83.9373 156.141 83.7357 156.344 83.6081 156.572C83.484 156.796 83.422 157.037 83.422 157.296C83.422 157.485 83.4547 157.656 83.5202 157.808C83.5857 157.959 83.6736 158.089 83.7839 158.195C83.8977 158.299 84.0287 158.38 84.1769 158.438C84.3286 158.494 84.4889 158.521 84.6578 158.521C84.9611 158.521 85.2386 158.475 85.4903 158.382C85.7419 158.285 85.9694 158.152 86.1728 157.983L84.2131 155.962ZM89.1925 159.457H87.9412C87.8102 159.457 87.7033 159.442 87.6206 159.41C87.5413 159.379 87.4569 159.314 87.3672 159.214L86.8502 158.681C86.5227 158.95 86.1556 159.161 85.7488 159.312C85.342 159.464 84.9025 159.54 84.4303 159.54C84.1442 159.54 83.8615 159.492 83.5823 159.395C83.3065 159.295 83.06 159.152 82.8429 158.966C82.6257 158.78 82.4499 158.556 82.3155 158.294C82.1845 158.028 82.119 157.73 82.119 157.399C82.119 157.165 82.1569 156.944 82.2327 156.737C82.3086 156.527 82.4137 156.332 82.5481 156.153C82.6826 155.974 82.8429 155.813 83.029 155.672C83.2152 155.527 83.4185 155.403 83.6392 155.3C83.453 155.041 83.3186 154.79 83.2358 154.545C83.1531 154.297 83.1117 154.05 83.1117 153.805C83.1117 153.547 83.1583 153.302 83.2514 153.071C83.3479 152.837 83.4858 152.633 83.665 152.461C83.8443 152.289 84.0649 152.153 84.3269 152.053C84.5888 151.949 84.8853 151.897 85.2162 151.897C85.5196 151.897 85.7902 151.944 86.028 152.037C86.2693 152.13 86.4744 152.254 86.6433 152.409C86.8157 152.564 86.9501 152.742 87.0467 152.942C87.1466 153.142 87.2052 153.349 87.2225 153.562L86.4107 153.733C86.259 153.764 86.1487 153.699 86.0797 153.537C86.0487 153.447 86.0073 153.362 85.9556 153.283C85.9074 153.2 85.8488 153.13 85.7798 153.071C85.7109 153.009 85.6299 152.961 85.5368 152.926C85.4437 152.889 85.3369 152.87 85.2162 152.87C85.0714 152.87 84.9422 152.895 84.8284 152.947C84.7147 152.995 84.6181 153.063 84.5389 153.149C84.463 153.231 84.4044 153.33 84.3631 153.443C84.3217 153.554 84.301 153.671 84.301 153.795C84.301 153.899 84.3114 153.998 84.332 154.095C84.3527 154.192 84.3872 154.288 84.4354 154.385C84.4837 154.481 84.5458 154.581 84.6216 154.684C84.7009 154.784 84.7974 154.893 84.9112 155.01L86.8967 157.073C87.0105 156.856 87.1018 156.627 87.1708 156.386C87.2397 156.144 87.2845 155.9 87.3052 155.651C87.3155 155.572 87.3431 155.508 87.3879 155.46C87.4327 155.412 87.4948 155.388 87.5741 155.388H88.3704C88.3669 155.843 88.3014 156.277 88.1739 156.691C88.0463 157.104 87.8636 157.485 87.6258 157.833L89.1925 159.457ZM98.7355 155.708V158.733C98.3563 159.012 97.9513 159.217 97.5204 159.348C97.093 159.476 96.6345 159.54 96.145 159.54C95.5349 159.54 94.9816 159.445 94.4852 159.255C93.9923 159.066 93.57 158.802 93.2184 158.464C92.8702 158.126 92.6013 157.723 92.4118 157.254C92.2222 156.785 92.1274 156.274 92.1274 155.719C92.1274 155.157 92.2187 154.641 92.4014 154.173C92.5841 153.704 92.8426 153.3 93.177 152.963C93.5148 152.625 93.9233 152.363 94.4025 152.177C94.8816 151.991 95.4194 151.897 96.0157 151.897C96.3191 151.897 96.6018 151.922 96.8637 151.97C97.1292 152.018 97.3739 152.085 97.598 152.171C97.8255 152.254 98.0323 152.356 98.2185 152.477C98.4046 152.597 98.5752 152.73 98.7304 152.875L98.3322 153.506C98.2702 153.606 98.1892 153.668 98.0892 153.692C97.9892 153.712 97.8806 153.687 97.7634 153.614C97.6497 153.549 97.5359 153.483 97.4222 153.418C97.3084 153.352 97.1809 153.295 97.0395 153.247C96.9017 153.199 96.7448 153.159 96.569 153.128C96.3966 153.097 96.1967 153.082 95.9692 153.082C95.6004 153.082 95.266 153.144 94.9661 153.268C94.6696 153.392 94.4163 153.569 94.206 153.8C93.9957 154.031 93.8337 154.309 93.7199 154.633C93.6062 154.957 93.5493 155.319 93.5493 155.719C93.5493 156.146 93.6096 156.529 93.7303 156.867C93.8544 157.201 94.0267 157.485 94.2474 157.72C94.4714 157.951 94.7403 158.128 95.054 158.252C95.3677 158.373 95.7176 158.433 96.1036 158.433C96.3794 158.433 96.6259 158.404 96.8431 158.345C97.0602 158.287 97.2722 158.207 97.479 158.107V156.753H96.538C96.4484 156.753 96.3777 156.729 96.326 156.68C96.2777 156.629 96.2536 156.567 96.2536 156.494V155.708H98.7355ZM102.161 154.069C102.554 154.069 102.911 154.133 103.231 154.26C103.555 154.388 103.831 154.569 104.059 154.803C104.289 155.038 104.467 155.324 104.591 155.662C104.715 156 104.777 156.377 104.777 156.794C104.777 157.215 104.715 157.594 104.591 157.932C104.467 158.269 104.289 158.557 104.059 158.795C103.831 159.033 103.555 159.216 103.231 159.343C102.911 159.471 102.554 159.535 102.161 159.535C101.764 159.535 101.404 159.471 101.08 159.343C100.756 159.216 100.479 159.033 100.248 158.795C100.02 158.557 99.8427 158.269 99.7151 157.932C99.591 157.594 99.529 157.215 99.529 156.794C99.529 156.377 99.591 156 99.7151 155.662C99.8427 155.324 100.02 155.038 100.248 154.803C100.479 154.569 100.756 154.388 101.08 154.26C101.404 154.133 101.764 154.069 102.161 154.069ZM102.161 158.552C102.602 158.552 102.928 158.404 103.138 158.107C103.352 157.811 103.459 157.377 103.459 156.804C103.459 156.232 103.352 155.796 103.138 155.496C102.928 155.196 102.602 155.046 102.161 155.046C101.713 155.046 101.38 155.198 101.163 155.501C100.949 155.801 100.842 156.236 100.842 156.804C100.842 157.373 100.949 157.808 101.163 158.107C101.38 158.404 101.713 158.552 102.161 158.552ZM108.099 154.069C108.492 154.069 108.849 154.133 109.169 154.26C109.493 154.388 109.769 154.569 109.997 154.803C110.228 155.038 110.405 155.324 110.529 155.662C110.653 156 110.716 156.377 110.716 156.794C110.716 157.215 110.653 157.594 110.529 157.932C110.405 158.269 110.228 158.557 109.997 158.795C109.769 159.033 109.493 159.216 109.169 159.343C108.849 159.471 108.492 159.535 108.099 159.535C107.703 159.535 107.342 159.471 107.018 159.343C106.694 159.216 106.417 159.033 106.186 158.795C105.958 158.557 105.781 158.269 105.653 157.932C105.529 157.594 105.467 157.215 105.467 156.794C105.467 156.377 105.529 156 105.653 155.662C105.781 155.324 105.958 155.038 106.186 154.803C106.417 154.569 106.694 154.388 107.018 154.26C107.342 154.133 107.703 154.069 108.099 154.069ZM108.099 158.552C108.54 158.552 108.866 158.404 109.076 158.107C109.29 157.811 109.397 157.377 109.397 156.804C109.397 156.232 109.29 155.796 109.076 155.496C108.866 155.196 108.54 155.046 108.099 155.046C107.651 155.046 107.318 155.198 107.101 155.501C106.887 155.801 106.781 156.236 106.781 156.804C106.781 157.373 106.887 157.808 107.101 158.107C107.318 158.404 107.651 158.552 108.099 158.552ZM113.588 156.675C113.747 156.675 113.885 156.655 114.002 156.613C114.119 156.568 114.216 156.508 114.292 156.432C114.371 156.356 114.43 156.265 114.468 156.158C114.509 156.051 114.53 155.934 114.53 155.807C114.53 155.545 114.45 155.338 114.292 155.186C114.137 155.031 113.902 154.953 113.588 154.953C113.275 154.953 113.039 155.031 112.88 155.186C112.725 155.338 112.647 155.545 112.647 155.807C112.647 155.931 112.666 156.046 112.704 156.153C112.746 156.26 112.804 156.353 112.88 156.432C112.959 156.508 113.058 156.568 113.175 156.613C113.295 156.655 113.433 156.675 113.588 156.675ZM115.031 159.695C115.031 159.591 115 159.507 114.938 159.442C114.876 159.376 114.792 159.326 114.685 159.292C114.578 159.254 114.452 159.226 114.307 159.209C114.166 159.192 114.014 159.18 113.852 159.173C113.694 159.162 113.528 159.154 113.356 159.147C113.187 159.14 113.021 159.126 112.859 159.105C112.718 159.185 112.603 159.278 112.513 159.385C112.427 159.492 112.384 159.616 112.384 159.757C112.384 159.85 112.406 159.936 112.451 160.015C112.499 160.098 112.573 160.169 112.673 160.227C112.777 160.286 112.909 160.331 113.071 160.362C113.233 160.396 113.432 160.414 113.666 160.414C113.904 160.414 114.109 160.395 114.281 160.357C114.454 160.322 114.595 160.272 114.705 160.207C114.819 160.145 114.902 160.069 114.954 159.979C115.005 159.893 115.031 159.798 115.031 159.695ZM116.303 154.333V154.809C116.303 154.96 116.212 155.053 116.029 155.088L115.553 155.176C115.626 155.358 115.662 155.558 115.662 155.775C115.662 156.037 115.609 156.275 115.502 156.489C115.398 156.699 115.253 156.879 115.067 157.027C114.881 157.175 114.661 157.291 114.405 157.373C114.154 157.453 113.881 157.492 113.588 157.492C113.485 157.492 113.385 157.487 113.289 157.477C113.192 157.466 113.097 157.453 113.004 157.435C112.839 157.535 112.756 157.647 112.756 157.771C112.756 157.878 112.804 157.958 112.901 158.009C113.001 158.057 113.132 158.092 113.294 158.113C113.456 158.133 113.64 158.147 113.847 158.154C114.054 158.157 114.266 158.168 114.483 158.185C114.7 158.202 114.912 158.233 115.119 158.278C115.326 158.319 115.51 158.387 115.672 158.48C115.834 158.573 115.964 158.7 116.06 158.862C116.16 159.021 116.21 159.226 116.21 159.478C116.21 159.712 116.151 159.94 116.034 160.16C115.92 160.381 115.753 160.577 115.533 160.75C115.315 160.922 115.047 161.06 114.726 161.163C114.409 161.27 114.047 161.324 113.64 161.324C113.24 161.324 112.892 161.284 112.596 161.205C112.299 161.129 112.053 161.025 111.856 160.894C111.66 160.767 111.513 160.619 111.417 160.45C111.32 160.281 111.272 160.105 111.272 159.922C111.272 159.674 111.346 159.467 111.494 159.302C111.646 159.133 111.853 158.999 112.115 158.899C111.973 158.826 111.861 158.73 111.779 158.609C111.696 158.488 111.655 158.33 111.655 158.133C111.655 158.054 111.668 157.973 111.696 157.89C111.727 157.804 111.77 157.72 111.825 157.637C111.884 157.554 111.956 157.477 112.042 157.404C112.129 157.328 112.23 157.261 112.348 157.203C112.079 157.058 111.867 156.865 111.712 156.623C111.56 156.382 111.484 156.1 111.484 155.775C111.484 155.514 111.536 155.277 111.639 155.067C111.746 154.853 111.892 154.672 112.079 154.524C112.268 154.372 112.491 154.257 112.746 154.178C113.004 154.098 113.285 154.059 113.588 154.059C113.816 154.059 114.03 154.083 114.23 154.131C114.43 154.176 114.612 154.243 114.778 154.333H116.303ZM118.406 151.773V159.457H117.129V151.773H118.406ZM123.096 156.194C123.096 156.029 123.072 155.874 123.024 155.729C122.979 155.581 122.91 155.451 122.817 155.341C122.724 155.231 122.605 155.145 122.46 155.083C122.319 155.017 122.153 154.984 121.964 154.984C121.595 154.984 121.304 155.09 121.09 155.3C120.88 155.51 120.745 155.808 120.686 156.194H123.096ZM120.661 156.965C120.681 157.237 120.73 157.473 120.805 157.673C120.881 157.87 120.981 158.033 121.105 158.164C121.229 158.292 121.376 158.388 121.545 158.454C121.717 158.516 121.907 158.547 122.114 158.547C122.32 158.547 122.498 158.523 122.646 158.475C122.798 158.426 122.929 158.373 123.039 158.314C123.153 158.256 123.251 158.202 123.334 158.154C123.42 158.106 123.503 158.082 123.582 158.082C123.689 158.082 123.768 158.121 123.82 158.201L124.187 158.666C124.046 158.831 123.887 158.971 123.711 159.085C123.536 159.195 123.351 159.285 123.158 159.354C122.969 159.419 122.774 159.466 122.574 159.493C122.377 159.521 122.186 159.535 122 159.535C121.631 159.535 121.288 159.474 120.971 159.354C120.654 159.23 120.378 159.049 120.144 158.811C119.909 158.569 119.725 158.273 119.59 157.921C119.456 157.566 119.389 157.156 119.389 156.691C119.389 156.329 119.447 155.989 119.564 155.672C119.682 155.351 119.849 155.074 120.066 154.84C120.287 154.602 120.554 154.414 120.867 154.276C121.185 154.138 121.541 154.069 121.938 154.069C122.272 154.069 122.581 154.123 122.863 154.229C123.146 154.336 123.389 154.493 123.592 154.7C123.796 154.903 123.954 155.155 124.068 155.455C124.185 155.751 124.244 156.091 124.244 156.474C124.244 156.667 124.223 156.798 124.182 156.867C124.141 156.932 124.061 156.965 123.944 156.965H120.661ZM128.994 158.082C129.139 158.257 129.296 158.382 129.465 158.454C129.637 158.526 129.823 158.562 130.023 158.562C130.216 158.562 130.39 158.526 130.545 158.454C130.701 158.382 130.832 158.271 130.938 158.123C131.049 157.975 131.133 157.789 131.192 157.565C131.25 157.337 131.28 157.07 131.28 156.763C131.28 156.453 131.254 156.191 131.202 155.977C131.154 155.76 131.083 155.584 130.99 155.45C130.897 155.315 130.783 155.217 130.649 155.155C130.518 155.093 130.368 155.062 130.199 155.062C129.934 155.062 129.708 155.119 129.522 155.233C129.335 155.343 129.16 155.5 128.994 155.703V158.082ZM128.927 154.876C129.144 154.631 129.391 154.433 129.666 154.281C129.942 154.129 130.266 154.054 130.638 154.054C130.928 154.054 131.192 154.114 131.43 154.235C131.671 154.355 131.878 154.531 132.05 154.762C132.226 154.99 132.36 155.272 132.453 155.61C132.55 155.944 132.598 156.329 132.598 156.763C132.598 157.16 132.545 157.527 132.438 157.864C132.331 158.202 132.178 158.495 131.978 158.743C131.781 158.992 131.542 159.186 131.259 159.328C130.98 159.466 130.666 159.535 130.318 159.535C130.021 159.535 129.768 159.49 129.558 159.4C129.348 159.307 129.16 159.18 128.994 159.018V161.189H127.717V154.152H128.498C128.663 154.152 128.772 154.229 128.824 154.385L128.927 154.876ZM134.887 151.773V159.457H133.61V151.773H134.887ZM138.962 157.192C138.594 157.209 138.283 157.242 138.032 157.291C137.78 157.335 137.578 157.394 137.427 157.466C137.275 157.539 137.166 157.623 137.101 157.72C137.035 157.816 137.003 157.921 137.003 158.035C137.003 158.259 137.068 158.419 137.199 158.516C137.334 158.612 137.508 158.661 137.721 158.661C137.983 158.661 138.209 158.614 138.399 158.521C138.592 158.425 138.78 158.28 138.962 158.087V157.192ZM136.036 154.891C136.646 154.333 137.38 154.054 138.238 154.054C138.549 154.054 138.826 154.105 139.071 154.209C139.316 154.309 139.523 154.45 139.691 154.633C139.86 154.812 139.988 155.027 140.074 155.279C140.164 155.531 140.209 155.807 140.209 156.106V159.457H139.629C139.509 159.457 139.416 159.44 139.35 159.405C139.285 159.367 139.233 159.293 139.195 159.183L139.081 158.8C138.947 158.921 138.816 159.028 138.688 159.121C138.561 159.211 138.428 159.286 138.29 159.348C138.152 159.41 138.004 159.457 137.845 159.488C137.69 159.523 137.518 159.54 137.328 159.54C137.104 159.54 136.898 159.51 136.708 159.452C136.518 159.39 136.355 159.298 136.217 159.178C136.079 159.057 135.972 158.907 135.896 158.728C135.82 158.549 135.782 158.34 135.782 158.102C135.782 157.968 135.805 157.835 135.85 157.704C135.894 157.57 135.967 157.442 136.067 157.322C136.17 157.201 136.303 157.087 136.465 156.98C136.627 156.873 136.825 156.78 137.06 156.701C137.297 156.622 137.573 156.558 137.887 156.51C138.201 156.458 138.559 156.427 138.962 156.417V156.106C138.962 155.751 138.887 155.489 138.735 155.32C138.583 155.148 138.364 155.062 138.078 155.062C137.871 155.062 137.699 155.086 137.561 155.134C137.427 155.183 137.308 155.238 137.204 155.3C137.101 155.358 137.006 155.412 136.92 155.46C136.837 155.508 136.744 155.532 136.641 155.532C136.551 155.532 136.475 155.51 136.413 155.465C136.351 155.417 136.301 155.362 136.263 155.3L136.036 154.891ZM146.079 154.152L143.189 160.915C143.151 161.005 143.101 161.072 143.039 161.117C142.98 161.165 142.889 161.189 142.765 161.189H141.813L142.806 159.059L140.66 154.152H141.782C141.882 154.152 141.96 154.176 142.015 154.224C142.073 154.273 142.116 154.328 142.144 154.39L143.271 157.141C143.309 157.234 143.34 157.327 143.364 157.42C143.392 157.513 143.418 157.608 143.442 157.704C143.473 157.608 143.504 157.513 143.535 157.42C143.566 157.323 143.6 157.228 143.638 157.135L144.704 154.39C144.731 154.321 144.776 154.264 144.838 154.219C144.903 154.174 144.976 154.152 145.055 154.152H146.079Z" fill="#E2F8F9"/>
</svg>
