<svg width="32" height="31" viewBox="0 0 32 31" fill="none" xmlns="http://www.w3.org/2000/svg">
<path d="M12.3766 7.15386C13.9891 4.26222 14.7948 2.81641 16 2.81641C17.2053 2.81641 18.0109 4.26222 19.6235 7.15386L20.0409 7.90222C20.4991 8.72441 20.7282 9.1355 21.0846 9.40659C21.4409 9.67768 21.8864 9.77822 22.7773 9.97931L23.5868 10.1626C26.7177 10.8715 28.2819 11.2253 28.6548 12.423C29.0264 13.6193 27.9599 14.8679 25.8255 17.3637L25.2731 18.009C24.6673 18.7179 24.3631 19.073 24.2269 19.5108C24.0908 19.9499 24.1366 20.4233 24.2282 21.369L24.3122 22.2306C24.6342 25.5613 24.7959 27.226 23.8209 27.9655C22.846 28.7062 21.3799 28.0304 18.45 26.6813L17.6902 26.3326C16.8579 25.9482 16.4417 25.7573 16 25.7573C15.5584 25.7573 15.1422 25.9482 14.3086 26.3326L13.5513 26.6813C10.6202 28.0304 9.15403 28.705 8.1804 27.9668C7.20422 27.226 7.36585 25.5613 7.68785 22.2306L7.77185 21.3702C7.86349 20.4233 7.90931 19.9499 7.77185 19.512C7.63694 19.073 7.33276 18.7179 6.72694 18.0102L6.17458 17.3637C4.04022 14.8691 2.97367 13.6206 3.34531 12.423C3.71821 11.2253 5.28367 10.8702 8.41458 10.1626L9.22403 9.97931C10.1137 9.77822 10.5579 9.67768 10.9155 9.40659C11.2719 9.1355 11.5009 8.72441 11.9591 7.90222L12.3766 7.15386Z" fill="#E2F8F9"/>
</svg>
