<svg width="48" height="39" viewBox="0 0 48 39" fill="none" xmlns="http://www.w3.org/2000/svg">
<path d="M24.0037 9.23219C24.0037 11.6807 23.031 14.029 21.2996 15.7603C19.5683 17.4917 17.22 18.4644 14.7715 18.4644C12.323 18.4644 9.97473 17.4917 8.24336 15.7603C6.51199 14.029 5.53931 11.6807 5.53931 9.23219C5.53931 6.78366 6.51199 4.43542 8.24336 2.70405C9.97473 0.972674 12.323 0 14.7715 0C17.22 0 19.5683 0.972674 21.2996 2.70405C23.031 4.43542 24.0037 6.78366 24.0037 9.23219ZM36.9288 18.4644C38.8876 18.4644 40.7662 17.6862 42.1513 16.3011C43.5364 14.916 44.3145 13.0375 44.3145 11.0786C44.3145 9.1198 43.5364 7.24121 42.1513 5.85611C40.7662 4.47101 38.8876 3.69288 36.9288 3.69288C34.9699 3.69288 33.0913 4.47101 31.7062 5.85611C30.3211 7.24121 29.543 9.1198 29.543 11.0786C29.543 13.0375 30.3211 14.916 31.7062 16.3011C33.0913 17.6862 34.9699 18.4644 36.9288 18.4644ZM33.2359 28.0437V27.6966C33.2386 25.6986 32.5904 23.7541 31.3894 22.1573H43.4762C45.9726 22.1573 48 24.181 48 26.681C48 26.681 48 35.0823 36.9214 35.0823C34.713 35.0823 32.9441 34.75 31.5298 34.2145C32.4119 32.5981 32.9725 30.8261 33.1805 28.9965C33.2026 28.7675 33.2174 28.5718 33.2248 28.4093L33.2359 28.0437ZM29.543 27.6966C29.543 26.2275 28.9594 24.8185 27.9206 23.7797C26.8818 22.7409 25.4728 22.1573 24.0037 22.1573H5.53931C4.0702 22.1573 2.66125 22.7409 1.62243 23.7797C0.583605 24.8185 0 26.2275 0 27.6966V27.9735C0 27.9735 0 38.7752 14.7715 38.7752C28.8487 38.7752 29.5098 28.9669 29.543 28.0437V27.6966Z" fill="#E2F8F9"/>
</svg>
